<?xml version="1.0" encoding="UTF-8" standalone="no"?>
<!-- Created with Inkscape (http://www.inkscape.org/) -->

<svg
   width="100"
   height="100"
   viewBox="0 0 26.458333 26.458333"
   version="1.1"
   id="svg1"
   xml:space="preserve"
   inkscape:version="1.3.2 (091e20e, 2023-11-25, custom)"
   sodipodi:docname="wN.svg"
   xmlns:inkscape="http://www.inkscape.org/namespaces/inkscape"
   xmlns:sodipodi="http://sodipodi.sourceforge.net/DTD/sodipodi-0.dtd"
   xmlns:xlink="http://www.w3.org/1999/xlink"
   xmlns="http://www.w3.org/2000/svg"
   xmlns:svg="http://www.w3.org/2000/svg"><sodipodi:namedview
     id="namedview1"
     pagecolor="#ffffff"
     bordercolor="#000000"
     borderopacity="0.25"
     inkscape:showpageshadow="2"
     inkscape:pageopacity="0.0"
     inkscape:pagecheckerboard="0"
     inkscape:deskcolor="#d1d1d1"
     inkscape:document-units="px"
     inkscape:zoom="5.8511223"
     inkscape:cx="49.30678"
     inkscape:cy="39.394152"
     inkscape:window-width="1920"
     inkscape:window-height="1017"
     inkscape:window-x="1912"
     inkscape:window-y="-8"
     inkscape:window-maximized="1"
     inkscape:current-layer="svg1" /><defs
     id="defs1"><linearGradient
       id="linearGradient9"
       inkscape:collect="always"><stop
         style="stop-color:#000000;stop-opacity:0;"
         offset="0.34999999"
         id="stop9" /><stop
         style="stop-color:#000000;stop-opacity:0.5;"
         offset="1"
         id="stop10" /></linearGradient><linearGradient
       inkscape:collect="always"
       xlink:href="#linearGradient9"
       id="linearGradient10"
       x1="3.2704593"
       y1="13.49375"
       x2="23.236771"
       y2="13.49375"
       gradientUnits="userSpaceOnUse" /><filter
       inkscape:collect="always"
       style="color-interpolation-filters:sRGB"
       id="filter28"
       x="-0.012148719"
       y="-0.011854878"
       width="1.0242974"
       height="1.0237098"><feGaussianBlur
         inkscape:collect="always"
         stdDeviation="0.099529972"
         id="feGaussianBlur28" /></filter><filter
       inkscape:collect="always"
       style="color-interpolation-filters:sRGB"
       id="filter29"
       x="-0.012150763"
       y="-0.011561788"
       width="1.0243015"
       height="1.0231236"><feGaussianBlur
         inkscape:collect="always"
         stdDeviation="0.089929501"
         id="feGaussianBlur29" /></filter><filter
       style="color-interpolation-filters:sRGB;"
       inkscape:label="Drop Shadow"
       id="filter31"
       x="-0.12020247"
       y="-0.11629316"
       width="1.2904893"
       height="1.2810418"><feFlood
         result="flood"
         in="SourceGraphic"
         flood-opacity="0.498039"
         flood-color="rgb(0,0,0)"
         id="feFlood29" /><feGaussianBlur
         result="blur"
         in="SourceGraphic"
         stdDeviation="1.000000"
         id="feGaussianBlur30" /><feOffset
         result="offset"
         in="blur"
         dx="1.000000"
         dy="1.000000"
         id="feOffset30" /><feComposite
         result="comp1"
         operator="in"
         in="flood"
         in2="offset"
         id="feComposite30" /><feComposite
         result="comp2"
         operator="over"
         in="SourceGraphic"
         in2="comp1"
         id="feComposite31" /></filter><filter
       style="color-interpolation-filters:sRGB;"
       inkscape:label="Drop Shadow"
       id="filter13"
       x="-0.24040495"
       y="-0.23258631"
       width="1.4808099"
       height="1.4651726"><feFlood
         result="flood"
         in="SourceGraphic"
         flood-opacity="1.000000"
         flood-color="rgb(0,0,0)"
         id="feFlood12" /><feGaussianBlur
         result="blur"
         in="SourceGraphic"
         stdDeviation="2.000000"
         id="feGaussianBlur12" /><feOffset
         result="offset"
         in="blur"
         dx="0.000000"
         dy="0.000000"
         id="feOffset12" /><feComposite
         result="comp1"
         operator="in"
         in="flood"
         in2="offset"
         id="feComposite12" /><feComposite
         result="comp2"
         operator="over"
         in="SourceGraphic"
         in2="comp1"
         id="feComposite13" /></filter></defs><path
     id="path4"
     style="display:inline;fill:#ffe5c6;fill-opacity:1;stroke:none;stroke-width:0.132292;stroke-dasharray:none;paint-order:stroke fill markers"
     d="M 9.9218749,3.175 C 9.4519677,3.9274894 9.3192975,4.8364555 9.2795368,5.8275512 9.128277,5.7322056 8.9649896,5.6185261 8.7953287,5.4715006 L 7.8227782,4.4994669 C 7.7639564,5.6731664 7.7645058,6.9692855 7.8160603,8.1540241 7.5196167,8.4180982 7.2143026,8.7044981 6.9065551,9.0810993 L 6.3308796,11.127486 C 4.547284,14.025459 2.9512455,14.095544 3.3253784,16.530774 3.8445666,17.430173 4.1006329,18.04404 5.0839273,18.2578 5.5388037,17.802506 5.7743582,17.429787 6.362919,17.16226 l -0.2557983,0.839742 c 0.4836194,0.376893 0.9806304,0.287837 1.5668294,0.287837 0.3799082,-0.258338 0.5436709,-0.480833 0.6712768,-0.895552 0.4013682,-0.532275 1.2833284,-1.481742 2.0784261,-1.982308 1.165228,0.09853 1.899434,-0.126508 2.590023,-0.383956 0.01991,0.980561 0.15487,1.833544 -0.767395,2.973979 -0.603843,0.713003 -1.315368,1.343064 -2.174028,1.886189 C 9.265304,20.603056 8.2328126,21.279775 8.9958332,23.8125 H 22.754166 C 24.442098,16.933315 21.926018,5.2080066 11.641667,5.1593749 10.70008,4.6494965 10.399977,3.9166197 9.9218749,3.175 Z"
     inkscape:label="Base" /><path
     id="path9"
     style="display:inline;fill:url(#linearGradient10);stroke:none;stroke-width:0.132292;stroke-dasharray:none;paint-order:stroke fill markers"
     d="M 9.9218749,3.175 C 9.4519677,3.9274894 9.3192975,4.8364555 9.2795368,5.8275512 9.128277,5.7322056 8.9649896,5.6185261 8.7953287,5.4715006 L 7.8227782,4.4994669 C 7.7639564,5.6731664 7.7645058,6.9692855 7.8160603,8.1540241 7.5196167,8.4180982 7.2143026,8.7044981 6.9065551,9.0810993 L 6.3308796,11.127486 C 4.547284,14.025459 2.9512455,14.095544 3.3253784,16.530774 3.8445666,17.430173 4.1006329,18.04404 5.0839273,18.2578 5.5388037,17.802506 5.7743582,17.429787 6.362919,17.16226 l -0.2557983,0.839742 c 0.4836194,0.376893 0.9806304,0.287837 1.5668294,0.287837 0.3799082,-0.258338 0.5436709,-0.480833 0.6712768,-0.895552 0.4013682,-0.532275 1.2833284,-1.481742 2.0784261,-1.982308 1.165228,0.09853 1.899434,-0.126508 2.590023,-0.383956 0.01991,0.980561 0.15487,1.833544 -0.767395,2.973979 -0.603843,0.713003 -1.315368,1.343064 -2.174028,1.886189 C 9.265304,20.603056 8.2328126,21.279775 8.9958332,23.8125 H 22.754166 C 24.442098,16.933315 21.926018,5.2080066 11.641667,5.1593749 10.70008,4.6494965 10.399977,3.9166197 9.9218749,3.175 Z"
     inkscape:label="Gradient"
     sodipodi:insensitive="true" /><path
     id="path17"
     style="display:inline;opacity:0.3;fill:#000000;fill-opacity:0.442308;stroke:none;stroke-width:0.529167;stroke-linecap:round;stroke-linejoin:miter;stroke-dasharray:none;stroke-opacity:1;paint-order:stroke fill markers;filter:url(#filter29)"
     d="m 12.566158,5.2120849 -0.671277,0.063562 1.018543,0.9229411 -0.155547,0.00465 0.09612,1.0552327 c 0.200779,0.502663 0.360536,0.4067309 0.943094,0.5276164 0.336185,-0.3586052 0.550538,-0.4145306 0.463538,-0.8154541 l -0.383439,-0.7994344 -0.879016,0.025321 1.038696,-0.0894 0.735356,0.8635132 1.439188,0.095601 0.607198,1.1833902 0.991154,0.095601 0.09612,0.3198772 c 0.637696,4.7812888 0.854999,10.4990798 -0.927076,12.4385168 -0.588465,0.539264 -1.752457,2.725821 -0.575675,2.653585 l 3.873688,0.122478 C 23.448326,17.322494 20.078863,7.7345721 14.676623,5.595524 Z M 8.6775064,5.3536783 C 8.3907393,6.0555369 8.4097289,6.8337138 8.4304931,7.6124551 8.7654757,7.308007 9.0560714,7.0035955 9.2604165,6.6145832 9.2618906,6.3461174 9.2691837,6.0856169 9.2795368,5.8275512 9.1282778,5.732206 8.9649888,5.6185253 8.7953287,5.4715006 Z M 10.163204,9.2655842 C 9.4194502,9.273839 8.7724038,9.4508604 8.2816649,9.6882974 l 0.223759,0.8955526 1.0231933,0.255798 c 0.2238232,-0.277598 0.8469768,-0.543186 1.3585738,-0.527616 0.413831,-0.7223813 -0.02846,-0.8538243 -0.399459,-1.0392131 -0.110013,-0.00603 -0.218278,-0.00841 -0.324528,-0.00723 z m 4.321183,0.5508708 0.224276,2.109949 -0.192237,1.407149 -0.703316,1.119311 -0.863513,0.511597 -0.222209,0.161747 c 0.09539,-0.03274 0.19342,-0.06356 0.286288,-0.09819 0.01476,0.726981 0.0905,1.384575 -0.24598,2.140438 l 0.150378,-0.09405 c 1.28681,-1.143504 3.545062,-3.235326 1.566313,-7.257955 z m -4.316532,5.115967 c -0.7512884,0.3413 -1.4735495,0.740471 -2.0143476,1.50275 l 0.084233,1.240751 c 0.039929,-0.08414 0.075138,-0.176501 0.1074869,-0.281636 0.4013674,-0.532275 1.28333,-1.481744 2.0784257,-1.982308 0.429437,0.03631 0.799454,0.02822 1.131197,-0.0088 z M 6.2673176,16.274975 C 5.500226,17.203106 4.7203696,17.873678 3.8690144,17.07441 L 3.7413737,17.244425 C 4.05895,17.753375 4.3901435,18.106977 5.0839273,18.2578 5.5388029,17.802508 5.7743594,17.429785 6.362919,17.16226 L 6.2037556,17.684192 6.9065551,16.658931 C 6.8549657,16.315596 6.5701942,16.283275 6.2673176,16.274975 Z"
     inkscape:label="Dark"
     sodipodi:nodetypes="cccccccccccccccccccccccccccccccccccccccccccccccccccccccccccc"
     sodipodi:insensitive="true" /><path
     id="path24"
     style="opacity:0.3;fill:#ffffff;fill-opacity:1;stroke:none;stroke-width:0.529167;stroke-linecap:round;stroke-linejoin:miter;stroke-dasharray:none;stroke-opacity:1;paint-order:stroke fill markers;filter:url(#filter28)"
     d="M 9.8123208,3.6628255 9.4960611,4.3408203 9.3379312,6.7830484 7.4837808,8.5462483 6.8812336,9.1715331 6.7406737,9.6712442 6.4213134,10.852567 l -0.021704,0.03152 -0.06873,0.243396 C 5.1633262,13.024515 4.0802045,13.71133 3.573425,14.64148 L 3.61735,14.719 C 4.787559,13.791568 2.5451366,16.092924 7.3029133,11.756905 7.0229068,9.783974 7.1182526,8.9964265 9.2474974,8.8857624 L 10.038664,7.7323445 C 9.8877121,6.4513423 9.728693,5.1784074 9.8123208,3.6628255 Z M 7.8227782,4.4994669 c -0.058562,1.1685094 -0.058112,2.458062 -0.00723,3.6385376 L 8.3431599,7.6646483 V 6.1272745 L 8.4795857,5.1562743 Z m 12.8710488,5.5934571 -0.03824,0.171049 c 0.829729,3.965865 2.809168,6.94108 0.959632,13.525272 l 0.0124,0.02325 h 1.126546 c 0.986001,-4.018457 0.533172,-9.687303 -2.060339,-13.719576 z m -8.620146,0.624251 c -1.187891,0.822723 -1.067671,1.320681 -1.424719,1.921847 0.516162,-0.695118 0.950702,-1.3528 1.99006,-1.582849 -0.101647,-0.170892 -0.282878,-0.288649 -0.565341,-0.338998 z m -7.6481114,3.907772 c -0.185037,-0.0027 -0.3802933,0.118887 -0.5885946,0.403076 -0.00108,0.472939 0.00806,0.909139 0.096118,1.055233 l 0.7033162,0.415995 C 4.8544182,16.259922 4.9827157,15.781728 5.0198486,15.060062 4.8316991,14.791065 4.6352783,14.628049 4.4255696,14.624947 Z m 8.1131994,2.971395 c -0.08325,0.131502 -0.179816,0.266334 -0.292488,0.40566 -0.603843,0.713002 -1.315369,1.343065 -2.174028,1.886189 -0.8069479,0.714865 -1.8394396,1.391586 -1.0764198,3.924309 h 2.5130248 l 0.0021,-0.08733 c -1.302036,-3.687179 1.789637,-4.816238 1.027844,-6.128825 z"
     inkscape:label="Light"
     sodipodi:nodetypes="ccccccccccccccccccccccccccccsccsccccsccccccccc"
     sodipodi:insensitive="true" /><g
     inkscape:groupmode="layer"
     id="layer2"
     inkscape:label="Outline"
     style="fill:none;stroke:#000000;stroke-width:0.529167;stroke-dasharray:none;stroke-opacity:1"
     sodipodi:insensitive="true"><path
       id="path10"
       style="display:inline;fill:none;fill-opacity:1;stroke:#000000;stroke-width:0.529167;stroke-dasharray:none;stroke-opacity:1;paint-order:stroke fill markers"
       d="M 7.8227782,4.4994669 C 7.7639564,5.6731664 7.7645058,6.9692855 7.8160603,8.1540241 8.4038382,7.6304276 8.9385121,7.227392 9.2604165,6.6145832 c 0.00147,-0.268467 0.00877,-0.5289651 0.01912,-0.787032 C 9.128277,5.7322056 8.9649896,5.6185261 8.7953287,5.4715006 Z" /><path
       style="display:inline;fill:none;fill-opacity:0.254808;stroke:#000000;stroke-width:0.529167;stroke-linejoin:miter;stroke-dasharray:none;stroke-opacity:1;paint-order:stroke fill markers"
       d="M 8.9958332,23.8125 H 22.754166 C 24.442099,16.933308 21.926029,5.2080066 11.641667,5.1593749 10.70008,4.649496 10.399978,3.9166205 9.9218749,3.175 9.3296101,4.1234277 9.2675518,5.3150778 9.2604165,6.6145832 8.7761603,7.5364607 7.8245035,7.9575388 6.9065642,9.0808528 L 6.3310171,11.127242 c -1.7835974,2.897976 -3.3797678,2.968515 -3.0056345,5.403747 0.5191887,0.8994 0.7753204,1.512881 1.7586158,1.726641 0.4548768,-0.455295 0.690432,-0.82761 1.2789934,-1.095138 l -0.2557986,0.83934 c 0.4836199,0.376894 0.9805674,0.287773 1.566767,0.287773 0.3799086,-0.258339 0.5438653,-0.480575 0.6714714,-0.895295 0.4013686,-0.532275 1.2832659,-1.481873 2.0783644,-1.98244 1.165229,0.09853 1.899373,-0.12625 2.589962,-0.383698 0.01991,0.980562 0.15487,1.833224 -0.767396,2.97366 -0.603843,0.713004 -1.315628,1.343389 -2.174289,1.886515 -0.8069501,0.714865 -1.8392612,1.391426 -1.0762398,3.924153 z"
       id="path11"
       sodipodi:nodetypes="cccccccccccccccccc" /><path
       style="display:inline;fill:none;fill-opacity:0.254808;stroke:#000000;stroke-width:0.529167;stroke-linecap:round;stroke-linejoin:miter;stroke-dasharray:none;stroke-opacity:1;paint-order:stroke fill markers"
       d="m 13.013758,15.028172 c 1.658037,-0.836319 1.743628,-2.209571 1.682496,-3.632923"
       id="path12"
       sodipodi:nodetypes="cc"
       inkscape:label="cheek" /><path
       style="display:inline;fill:none;fill-opacity:1;stroke:#000000;stroke-width:0.529167;stroke-linejoin:round;stroke-dasharray:none;stroke-opacity:1;paint-order:stroke fill markers"
       d="m 11.641667,5.1593749 1.308141,1.0597304 1.199056,-0.1598743 0.687459,0.9272704 1.390905,-0.047962 0.607522,1.310968 1.215044,0.1119122 0.463635,2.0144144 0.975232,0.447647 0.07994,2.11034 0.767396,0.559559 -0.351723,2.286201 0.86332,0.895295 -0.815358,2.094352 0.847333,1.231031 -2.222251,3.812241"
       id="path14"
       sodipodi:nodetypes="cccccccccccccccc"
       inkscape:label="Mane" /></g><g
     inkscape:groupmode="layer"
     id="layer3"
     inkscape:label="Black"
     style="display:inline"
     sodipodi:insensitive="true"><path
       style="display:inline;fill:#000000;fill-opacity:1;stroke:none;stroke-width:0.132292;stroke-dasharray:none;paint-order:stroke fill markers"
       d="m 10.104047,4.7322755 c -0.09938,0.7141047 -0.08908,1.2363603 0.04796,1.8225656 0.308302,0.1754017 0.629301,0.3401112 0.543567,0.8473332 0.08527,0.3089242 0.40235,0.4032721 0.49561,0.047962 0.06255,-0.2672996 0.06395,-0.4938357 0.06395,-0.7194338 C 11.201699,6.6258253 11.140638,6.4533522 10.999536,6.2987034 10.71212,5.9836934 10.315681,5.2445265 10.104047,4.7322755 Z"
       id="path13"
       sodipodi:nodetypes="cccccsc"
       inkscape:label="Earhole" /><path
       style="display:inline;fill:#000000;fill-opacity:1;stroke:none;stroke-width:0.132292;stroke-dasharray:none;stroke-opacity:1;paint-order:stroke fill markers"
       d="M 8.0416709,11.015331 C 7.9867146,10.767526 7.9912079,10.474501 8.0816393,10.271915 8.143112,10.103857 8.174866,9.9265924 8.2302088,9.795036 9.0225885,9.5751227 9.7787628,9.7328647 10.167997,9.9841419 10.060188,10.66771 9.198415,10.953033 8.6891613,10.903418 8.3236235,10.867937 8.139291,10.923468 8.0416709,11.015331 Z"
       id="path15"
       sodipodi:nodetypes="cccccc"
       inkscape:label="Eye" /><path
       style="display:inline;fill:#000000;fill-opacity:1;stroke:none;stroke-width:0.132292;stroke-dasharray:none;stroke-opacity:1;paint-order:stroke fill markers"
       d="m 4.1488656,15.487591 c 0.010731,0.338456 0.00235,0.65398 -0.1356577,0.813946 0.067233,0.163491 0.127812,0.329199 0.2826202,0.463498 0.2069779,0.16953 0.29113,0.04223 0.3730588,-0.09044 0.041829,-0.273388 0.049786,-0.405487 -0.039567,-0.734811 -0.1290212,-0.251406 -0.2232892,-0.381595 -0.333492,-0.497412 -0.059247,0.0019 -0.1138336,0.0098 -0.1469625,0.04522 z"
       id="path16"
       sodipodi:nodetypes="ccccccc"
       inkscape:label="Nose" /></g></svg>
