<?xml version="1.0" encoding="UTF-8" standalone="no"?>
<!-- Created with Inkscape (http://www.inkscape.org/) -->

<svg
   width="100"
   height="100"
   viewBox="0 0 26.458333 26.458333"
   version="1.1"
   id="svg1"
   inkscape:version="1.3.2 (091e20e, 2023-11-25, custom)"
   sodipodi:docname="wQ.svg"
   xml:space="preserve"
   xmlns:inkscape="http://www.inkscape.org/namespaces/inkscape"
   xmlns:sodipodi="http://sodipodi.sourceforge.net/DTD/sodipodi-0.dtd"
   xmlns:xlink="http://www.w3.org/1999/xlink"
   xmlns="http://www.w3.org/2000/svg"
   xmlns:svg="http://www.w3.org/2000/svg"><sodipodi:namedview
     id="namedview1"
     pagecolor="#ffffff"
     bordercolor="#000000"
     borderopacity="0.25"
     inkscape:showpageshadow="2"
     inkscape:pageopacity="0.0"
     inkscape:pagecheckerboard="0"
     inkscape:deskcolor="#d1d1d1"
     inkscape:document-units="px"
     inkscape:zoom="4.1373683"
     inkscape:cx="68.038419"
     inkscape:cy="61.754232"
     inkscape:window-width="1920"
     inkscape:window-height="1017"
     inkscape:window-x="1912"
     inkscape:window-y="-8"
     inkscape:window-maximized="1"
     inkscape:current-layer="svg1" /><defs
     id="defs1"><linearGradient
       id="linearGradient90"
       inkscape:collect="always"><stop
         style="stop-color:#000000;stop-opacity:0;"
         offset="0.3490099"
         id="stop91" /><stop
         style="stop-color:#000000;stop-opacity:0.5;"
         offset="1"
         id="stop90" /></linearGradient><filter
       inkscape:collect="always"
       style="color-interpolation-filters:sRGB"
       id="filter89"
       x="-0.011672559"
       y="-0.012346341"
       width="1.0233451"
       height="1.0246927"><feGaussianBlur
         inkscape:collect="always"
         stdDeviation="0.10293042"
         id="feGaussianBlur89" /></filter><filter
       inkscape:collect="always"
       style="color-interpolation-filters:sRGB"
       id="filter90"
       x="-0.011288721"
       y="-0.012806939"
       width="1.0225774"
       height="1.0256139"><feGaussianBlur
         inkscape:collect="always"
         stdDeviation="0.098398385"
         id="feGaussianBlur90" /></filter><linearGradient
       inkscape:collect="always"
       xlink:href="#linearGradient90"
       id="linearGradient91"
       x1="2.3006347"
       y1="13.783657"
       x2="24.157698"
       y2="13.783657"
       gradientUnits="userSpaceOnUse" /><filter
       style="color-interpolation-filters:sRGB;"
       inkscape:label="Drop Shadow"
       id="filter97"
       x="-0.10980432"
       y="-0.11965483"
       width="1.2653604"
       height="1.2891658"><feFlood
         result="flood"
         in="SourceGraphic"
         flood-opacity="0.498039"
         flood-color="rgb(0,0,0)"
         id="feFlood96" /><feGaussianBlur
         result="blur"
         in="SourceGraphic"
         stdDeviation="1.000000"
         id="feGaussianBlur96" /><feOffset
         result="offset"
         in="blur"
         dx="1.000000"
         dy="1.000000"
         id="feOffset96" /><feComposite
         result="comp1"
         operator="in"
         in="flood"
         in2="offset"
         id="feComposite96" /><feComposite
         result="comp2"
         operator="over"
         in="SourceGraphic"
         in2="comp1"
         id="feComposite97" /></filter><filter
       style="color-interpolation-filters:sRGB;"
       inkscape:label="Drop Shadow"
       id="filter99"
       x="-0.10980432"
       y="-0.11965483"
       width="1.2653604"
       height="1.2891658"><feFlood
         result="flood"
         in="SourceGraphic"
         flood-opacity="0.498039"
         flood-color="rgb(0,0,0)"
         id="feFlood97" /><feGaussianBlur
         result="blur"
         in="SourceGraphic"
         stdDeviation="1.000000"
         id="feGaussianBlur97" /><feOffset
         result="offset"
         in="blur"
         dx="1.000000"
         dy="1.000000"
         id="feOffset97" /><feComposite
         result="comp1"
         operator="in"
         in="flood"
         in2="offset"
         id="feComposite98" /><feComposite
         result="comp2"
         operator="over"
         in="SourceGraphic"
         in2="comp1"
         id="feComposite99" /></filter></defs><path
     id="path50"
     style="display:inline;fill:#ffe5c6;fill-opacity:1;stroke:none;stroke-width:0.264583;stroke-linecap:butt;stroke-dasharray:none;stroke-opacity:1;paint-order:stroke fill markers"
     inkscape:label="Base"
     d="m 9.7193033,3.7548095 c -0.8362989,3e-7 -1.5146375,0.6778212 -1.5146362,1.5141195 0,0.7455476 0.5390261,1.364634 1.2485025,1.4903483 L 8.3343749,13.361458 4.6405436,10.932666 c 0.1251772,-0.196661 0.1984375,-0.42967 0.1984375,-0.680062 3e-7,-0.7008759 -0.5682973,-1.2691731 -1.2691732,-1.2691731 -0.7008761,3e-7 -1.2691742,0.5682974 -1.2691732,1.2691731 0,0.700875 0.5682975,1.269173 1.2691732,1.269173 0.1100809,0 0.2164803,-0.01448 0.3183268,-0.04082 l 2.4618652,5.849255 0.5291667,5.027083 c 0.7937497,1.455208 4.7625024,1.455209 6.3499994,1.455209 1.587499,0 5.556251,-1e-6 6.35,-1.455209 l 0.529167,-5.027083 2.461865,-5.849255 c 0.1017,0.02627 0.208416,0.04082 0.318327,0.04082 0.700876,0 1.269173,-0.568297 1.269173,-1.269173 0,-0.7008761 -0.568297,-1.2691734 -1.269173,-1.2691731 -0.700875,5e-7 -1.268657,0.5682975 -1.268656,1.2691731 0,0.250392 0.07276,0.483401 0.19792,0.680062 l -3.693831,2.428792 -1.118795,-6.6021807 c 0.709366,-0.1258211 1.248503,-0.744893 1.248503,-1.4903483 1e-6,-0.8362985 -0.678338,-1.5141195 -1.514636,-1.5141195 -0.836299,3e-7 -1.514121,0.6778212 -1.51412,1.5141195 0,0.5786409 0.324508,1.080921 0.801502,1.3358357 L 13.229166,11.641667 10.431921,6.6047647 c 0.476837,-0.2549733 0.801502,-0.7573356 0.801502,-1.3358357 0,-0.8362985 -0.677821,-1.5141195 -1.5141197,-1.5141195 z" /><path
     id="path90"
     style="display:inline;fill:url(#linearGradient91);stroke:none;stroke-width:0.264583;stroke-linecap:butt;stroke-dasharray:none;stroke-opacity:1;paint-order:stroke fill markers"
     inkscape:label="Gradient"
     d="m 9.7193033,3.7548095 c -0.8362989,3e-7 -1.5146375,0.6778212 -1.5146362,1.5141195 0,0.7455476 0.5390261,1.364634 1.2485025,1.4903483 L 8.3343749,13.361458 4.6405436,10.932666 c 0.1251772,-0.196661 0.1984375,-0.42967 0.1984375,-0.680062 3e-7,-0.7008759 -0.5682973,-1.2691731 -1.2691732,-1.2691731 -0.7008761,3e-7 -1.2691742,0.5682974 -1.2691732,1.2691731 0,0.700875 0.5682975,1.269173 1.2691732,1.269173 0.1100809,0 0.2164803,-0.01448 0.3183268,-0.04082 l 2.4618652,5.849255 0.5291667,5.027083 c 0.7937497,1.455208 4.7625024,1.455209 6.3499994,1.455209 1.587499,0 5.556251,-1e-6 6.35,-1.455209 l 0.529167,-5.027083 2.461865,-5.849255 c 0.1017,0.02627 0.208416,0.04082 0.318327,0.04082 0.700876,0 1.269173,-0.568297 1.269173,-1.269173 0,-0.7008761 -0.568297,-1.2691734 -1.269173,-1.2691731 -0.700875,5e-7 -1.268657,0.5682975 -1.268656,1.2691731 0,0.250392 0.07276,0.483401 0.19792,0.680062 l -3.693831,2.428792 -1.118795,-6.6021807 c 0.709366,-0.1258211 1.248503,-0.744893 1.248503,-1.4903483 1e-6,-0.8362985 -0.678338,-1.5141195 -1.514636,-1.5141195 -0.836299,3e-7 -1.514121,0.6778212 -1.51412,1.5141195 0,0.5786409 0.324508,1.080921 0.801502,1.3358357 L 13.229166,11.641667 10.431921,6.6047647 c 0.476837,-0.2549733 0.801502,-0.7573356 0.801502,-1.3358357 0,-0.8362985 -0.677821,-1.5141195 -1.5141197,-1.5141195 z"
     sodipodi:insensitive="true" /><path
     id="path67"
     style="display:inline;opacity:0.3;mix-blend-mode:normal;fill:#000000;fill-opacity:1;stroke:none;stroke-width:0.264583;stroke-linecap:butt;stroke-linejoin:miter;stroke-dasharray:none;stroke-opacity:1;paint-order:stroke fill markers;filter:url(#filter89)"
     d="m 10.103776,3.8039021 0.03204,0.2247925 c 0.02382,0.6466154 0.249766,1.2103948 -1.1187944,2.4303426 l -0.074414,0.109554 c 0.2271074,0.1359529 0.4927698,0.2144572 0.7766968,0.2144572 0.1397056,0 0.2746367,-0.019367 0.4030756,-0.054777 l 0.749309,5.4859696 2.360583,-0.453605 -0.142118,-0.3696 -2.658236,-4.7862713 C 10.908885,6.3498894 11.23342,5.8475693 11.23342,5.268929 c 0,-0.7033879 -0.479639,-1.2948227 -1.129647,-1.4650269 z m 7.502384,0.223759 -0.179834,0.065112 c 0.06889,1.1763444 -0.378411,2.0210724 -1.50275,2.4303426 l -0.0093,0.015503 c 0.188107,0.2029608 0.470961,0.133535 0.45682,0.3358968 l -0.287838,5.6916425 1.980895,0.919575 -0.03786,-0.701501 -1.021127,-6.0249549 c 8.75e-4,-1.551e-4 0.0017,-3.598e-4 0.0026,-5.168e-4 0.70814,-0.1268244 1.245919,-0.7452667 1.245919,-1.4898315 10e-7,-0.5138026 -0.25614,-0.9675014 -0.647506,-1.2412679 z m -13.6668656,5.0110636 -0.0062,0.073897 C 4.0397723,10.097502 3.7513784,10.845857 3.0055025,11.319206 l -0.011369,0.0646 c 0.1727685,0.08807 0.3686254,0.146112 0.5756755,0.137976 0.5346863,-0.02101 0.6971856,-0.169339 0.8428426,-0.170532 L 6.9385956,13.941273 8.345228,13.444269 8.269264,13.318572 4.6410617,10.932671 c 0.1251456,-0.196654 0.1979208,-0.429727 0.1979208,-0.680062 2e-7,-0.5722803 -0.3791577,-1.0556097 -0.8996867,-1.2138796 z m 19.9662226,0.4547526 -0.21239,0.03514 c -0.277432,0.7404717 -0.56203,1.4067357 -1.50275,1.5668297 -0.273145,0.02418 -0.307488,-0.07105 -0.446998,-0.113689 l -3.229777,2.123385 -0.158267,0.137972 c 0.335585,-0.03192 0.611104,-0.09817 1.500821,0.186558 l -0.191719,0.798918 c -0.526235,0.732584 -1.78916,1.238503 -3.42098,1.630908 l -2.220172,0.05465 c 0.340331,0.514716 0.581612,1.148292 0.621303,2.023777 0.05677,0.767269 0.0059,0.932863 -0.360884,1.191841 -0.436439,0.455358 -0.96132,0.874819 -2.197099,1.557862 -2.04213,0.213083 -4.51099,0.409981 -5.1759118,1.719792 0.8577671,1.404211 4.7497478,1.405082 6.3184768,1.405082 1.587497,0 5.556253,-3e-6 6.35,-1.455209 l 0.292489,-2.778641 -1.302763,0.37362 -1.278992,-1.214913 1.502751,-0.447518 1.11001,0.994772 0.205672,-1.954403 2.461865,-5.849255 c 0.101791,0.02641 0.20824,0.04082 0.318327,0.04082 0.700875,0 1.269173,-0.568298 1.269173,-1.269173 0,-0.2847305 -0.09381,-0.5473956 -0.252181,-0.7591266 z"
     sodipodi:nodetypes="ccccscccccscccccccccccscccccscccccsccccccccccccccccccccccccsscsssc"
     inkscape:label="Dark"
     sodipodi:insensitive="true" /><path
     id="path82"
     style="display:inline;opacity:0.3;mix-blend-mode:normal;fill:#ffffff;fill-opacity:1;stroke:none;stroke-width:0.264583;stroke-linecap:butt;stroke-dasharray:none;stroke-opacity:1;paint-order:stroke fill markers;filter:url(#filter90)"
     inkscape:label="Light"
     d="m 16.546277,3.7682454 c -0.745161,0.094761 -1.321368,0.7297589 -1.321367,1.5006836 0,0.4551086 0.202594,0.8604811 0.520382,1.137915 l 0.08165,-0.031006 C 15.290696,4.89469 16.022459,4.3922143 16.663065,3.9113891 Z M 9.1141722,3.8819335 C 8.579245,4.1155563 8.2046661,4.64798 8.2046671,5.268929 c 0,0.5521094 0.2964167,1.0337144 0.7379394,1.2981119 L 9.0666299,6.4213134 C 8.5353586,5.3455028 8.8504144,4.6927796 9.2697183,4.0922566 Z m 0.6304525,2.8556397 -0.2976562,0.059428 -1.089856,6.4316488 0.1214396,0.472839 1.2211141,-0.813904 z m 6.1763673,0.056844 -2.653585,4.7780028 -0.06356,0.54622 0.226343,0.226343 0.677995,-0.316777 1.876888,-5.0420692 z M 3.5698079,8.9834309 c -0.7008754,3e-7 -1.2691742,0.5682981 -1.2691732,1.2691731 0,0.411269 0.1989707,0.773174 0.502295,1.005107 l 0.09095,-0.02067 C 2.7044502,10.274771 3.1080929,9.668391 3.8209554,9.2474974 L 4.0359293,9.0743814 C 3.8913509,9.0171111 3.734751,8.9834309 3.5698079,8.9834309 Z m 19.3187171,0 c -0.700874,5e-7 -1.268657,0.5682982 -1.268656,1.2691731 0,0.228343 0.06289,0.440755 0.168465,0.625802 l 0.165364,0.0646 c 0.01523,-0.833421 0.348821,-1.4335093 1.26659,-1.6050698 l -0.07131,-0.3271118 c -0.08412,-0.017562 -0.171118,-0.027389 -0.260449,-0.027389 z m -18.7509259,2.4342111 -0.2237589,0.149345 2.3581283,5.577186 0.081132,-0.02894 0.4749064,-2.057239 z m 8.5629179,4.480612 c -2.225885,-0.0397 -4.3358164,0.509646 -6.3546512,1.421619 l 0.00413,0.01033 0.2056722,1.954403 1.1100098,-0.994772 1.0541992,0.313676 c 0.4147046,-1.369729 2.244061,-2.17226 4.483964,-2.686141 -0.168443,-0.0097 -0.336197,-0.01614 -0.503328,-0.01912 z m 0.528649,1.658297 c -0.828693,-3.1e-5 -1.500549,0.378235 -1.500683,0.84491 0.0014,0.242629 0.187947,0.473211 0.512113,0.633036 l 0.35295,-0.06511 c -0.162244,-0.409401 -0.135358,-0.964331 1.333769,-1.198377 l 0.05064,-0.101802 C 13.750183,17.595378 13.491974,17.55653 13.229166,17.556551 Z M 8.6299641,19.248954 7.8894408,19.95227 6.586678,19.57865 6.8636637,22.207946 C 7.5668435,21.613713 8.3994911,21.254696 9.2697183,21.094837 8.8380279,20.397724 8.6392077,19.786527 8.6299641,19.248954 Z"
     sodipodi:nodetypes="cscccccscccccccccccccccccssccccsssccccsscccccccccccccccccccccccccccc"
     sodipodi:insensitive="true" /><g
     inkscape:groupmode="layer"
     id="layer5"
     inkscape:label="Outline"
     style="display:inline;fill:none;fill-opacity:1;stroke:#000000;stroke-width:0.529167;stroke-dasharray:none;stroke-opacity:1"
     sodipodi:insensitive="true"><path
       id="path59"
       style="display:inline;fill:none;fill-opacity:1;stroke:#000000;stroke-width:0.529167;stroke-linecap:butt;stroke-dasharray:none;stroke-opacity:1;paint-order:stroke fill markers"
       inkscape:label="Crown"
       d="m 10.431921,6.6047647 c -0.212493,0.1136239 -0.4548203,0.1782837 -0.7126177,0.1782837 -0.09075,0 -0.1797743,-0.00847 -0.2661337,-0.023771 L 8.3343749,13.361458 4.6405436,10.932666 c -0.1701762,0.267357 -0.4374691,0.466821 -0.7524089,0.548287 l 2.4618652,5.849255 0.5291667,5.027083 c 0.7937473,1.455205 4.7625084,1.455209 6.3499994,1.455209 1.587496,0 5.556254,-4e-6 6.35,-1.455209 l 0.529167,-5.027083 2.461865,-5.849255 c -0.315127,-0.08139 -0.582171,-0.280796 -0.752409,-0.548287 l -3.693831,2.428792 -1.118795,-6.6021807 c -0.08644,0.015333 -0.175291,0.023771 -0.266133,0.023771 -0.257657,0 -0.500223,-0.064776 -0.712618,-0.1782837 l -2.797246,5.0369024 z" /><path
       id="path57"
       style="display:inline;fill:none;fill-opacity:1;stroke:#000000;stroke-width:0.529167;stroke-linecap:butt;stroke-linejoin:miter;stroke-dasharray:none;stroke-opacity:1;paint-order:stroke fill markers"
       d="m 20.108333,17.330208 c -1.5875,-1.190625 -4.7625,-1.455208 -6.879167,-1.455208 -2.116667,0 -5.2916666,0.264583 -6.8791666,1.455208"
       sodipodi:nodetypes="ccc"
       inkscape:label="Tarc" /><path
       id="path58"
       style="display:inline;fill:none;fill-opacity:1;stroke:#000000;stroke-width:0.529167;stroke-linecap:butt;stroke-linejoin:miter;stroke-dasharray:none;stroke-opacity:1;paint-order:stroke fill markers"
       d="m 19.579166,22.357291 c -0.79375,-1.455208 -4.7625,-1.455208 -6.35,-1.455208 -1.5875,0 -5.5562499,0 -6.3499999,1.455208"
       sodipodi:nodetypes="ccc"
       inkscape:label="Barc" /><path
       id="path60"
       style="display:inline;fill:none;fill-opacity:1;stroke:#000000;stroke-width:0.529167;stroke-dasharray:none;stroke-opacity:1;paint-order:stroke fill markers"
       d="m 4.8387274,10.252604 c 0,0.700876 -0.5681726,1.269049 -1.269049,1.269049 -0.7008764,0 -1.2691264,-0.568173 -1.2691264,-1.269049 -1e-6,-0.7008764 0.568329,-1.2690492 1.2692058,-1.2690495 0.7008766,0 1.2689699,0.5681729 1.2689696,1.2690495 z"
       sodipodi:nodetypes="sssss"
       inkscape:label="LLC" /><path
       id="path61"
       style="display:inline;fill:none;fill-opacity:1;stroke:#000000;stroke-width:0.529167;stroke-dasharray:none;stroke-opacity:1;paint-order:stroke fill markers"
       d="m 11.233414,5.268877 c 0,0.8362985 -0.678023,1.5142535 -1.5143223,1.5142535 -0.8362992,0 -1.5143631,-0.677955 -1.5143631,-1.5142535 -1.3e-6,-0.8362991 0.6781752,-1.5142538 1.5144749,-1.5142541 0.8362995,0 1.5142105,0.6779548 1.5142105,1.5142541 z"
       sodipodi:nodetypes="sssss"
       inkscape:label="LMC" /><path
       id="path62"
       style="display:inline;fill:none;fill-opacity:1;stroke:#000000;stroke-width:0.529167;stroke-dasharray:none;stroke-opacity:1;paint-order:stroke fill markers"
       d="m 24.15778,10.252604 c 0,0.700877 -0.568329,1.269049 -1.269206,1.269049 -0.700876,0 -1.268941,-0.568173 -1.268941,-1.269049 -1e-6,-0.7008763 0.568065,-1.269049 1.268941,-1.2690495 0.700877,-3e-7 1.269206,0.5681727 1.269206,1.2690495 z"
       sodipodi:nodetypes="sssss"
       inkscape:label="RRC" /><path
       id="path63"
       style="display:inline;fill:none;fill-opacity:1;stroke:#000000;stroke-width:0.529167;stroke-dasharray:none;stroke-opacity:1;paint-order:stroke fill markers"
       d="m 18.253603,5.268877 c 0,0.8362985 -0.678175,1.5142535 -1.514474,1.5142535 -0.8363,0 -1.514211,-0.677955 -1.514211,-1.5142535 -1e-6,-0.8362991 0.677911,-1.5142538 1.514211,-1.5142541 0.836299,0 1.514475,0.6779548 1.514474,1.5142541 z"
       sodipodi:nodetypes="sssss"
       inkscape:label="RMC" /><path
       id="path64"
       style="display:inline;fill:none;fill-opacity:1;stroke:#000000;stroke-width:0.529167;stroke-dasharray:none;stroke-opacity:1;paint-order:stroke fill markers"
       d="m 14.729748,18.401518 a 1.5005823,0.8450464 0 0 1 -1.500582,0.845046 1.5005823,0.8450464 0 0 1 -1.500582,-0.845046 1.5005823,0.8450464 0 0 1 1.500582,-0.845047 1.5005823,0.8450464 0 0 1 1.500582,0.845047 z"
       inkscape:label="Jewel" /><path
       id="path65"
       style="display:inline;fill:none;fill-opacity:1;stroke:#000000;stroke-width:0.529167;stroke-linecap:butt;stroke-dasharray:none;stroke-opacity:1;paint-order:stroke fill markers"
       inkscape:label="Lewel"
       d="m 7.6656819,18.289839 -1.1100098,0.994772 0.031006,0.294039 1.3027628,0.37362 1.2789917,-1.214913 z" /><path
       id="path66"
       style="display:inline;fill:none;fill-opacity:1;stroke:#000000;stroke-width:0.529167;stroke-linecap:butt;stroke-dasharray:none;stroke-opacity:1;paint-order:stroke fill markers"
       inkscape:label="Rewel"
       d="m 18.792651,18.289839 -1.502751,0.447518 1.278992,1.214913 1.302763,-0.37362 0.03101,-0.294039 z" /></g></svg>
