<?xml version="1.0" encoding="UTF-8" standalone="no"?>
<!-- Created with Inkscape (http://www.inkscape.org/) -->

<svg
   width="100"
   height="100"
   viewBox="0 0 26.458333 26.458333"
   version="1.1"
   id="svg1"
   inkscape:version="1.3.2 (091e20e, 2023-11-25, custom)"
   sodipodi:docname="bB.svg"
   xml:space="preserve"
   xmlns:inkscape="http://www.inkscape.org/namespaces/inkscape"
   xmlns:sodipodi="http://sodipodi.sourceforge.net/DTD/sodipodi-0.dtd"
   xmlns:xlink="http://www.w3.org/1999/xlink"
   xmlns="http://www.w3.org/2000/svg"
   xmlns:svg="http://www.w3.org/2000/svg"><sodipodi:namedview
     id="namedview1"
     pagecolor="#ffffff"
     bordercolor="#000000"
     borderopacity="0.25"
     inkscape:showpageshadow="2"
     inkscape:pageopacity="0.0"
     inkscape:pagecheckerboard="0"
     inkscape:deskcolor="#d1d1d1"
     inkscape:document-units="px"
     inkscape:zoom="4.1373683"
     inkscape:cx="40.484672"
     inkscape:cy="54.261546"
     inkscape:window-width="1920"
     inkscape:window-height="1017"
     inkscape:window-x="1912"
     inkscape:window-y="-8"
     inkscape:window-maximized="1"
     inkscape:current-layer="svg1"
     showguides="true" /><defs
     id="defs1"><linearGradient
       id="linearGradient32"
       inkscape:collect="always"><stop
         style="stop-color:#000000;stop-opacity:0;"
         offset="0.35369775"
         id="stop32" /><stop
         style="stop-color:#000000;stop-opacity:0.5;"
         offset="1"
         id="stop33" /></linearGradient><filter
       inkscape:collect="always"
       style="color-interpolation-filters:sRGB"
       id="filter32"
       x="-0.01305281"
       y="-0.011104348"
       width="1.0261056"
       height="1.0222087"><feGaussianBlur
         inkscape:collect="always"
         stdDeviation="0.093876685"
         id="feGaussianBlur32" /></filter><linearGradient
       inkscape:collect="always"
       xlink:href="#linearGradient32"
       id="linearGradient33"
       x1="2.5555584"
       y1="13.626042"
       x2="23.902775"
       y2="13.626042"
       gradientUnits="userSpaceOnUse" /><filter
       inkscape:collect="always"
       style="color-interpolation-filters:sRGB"
       id="filter39"
       x="-0.011566684"
       y="-0.012467044"
       width="1.0231334"
       height="1.0249341"><feGaussianBlur
         inkscape:collect="always"
         stdDeviation="0.10255153"
         id="feGaussianBlur39" /></filter><filter
       style="color-interpolation-filters:sRGB;"
       inkscape:label="Drop Shadow"
       id="filter41"
       x="-0.11242684"
       y="-0.11780346"
       width="1.2716982"
       height="1.2846917"><feFlood
         result="flood"
         in="SourceGraphic"
         flood-opacity="0.498039"
         flood-color="rgb(0,0,0)"
         id="feFlood39" /><feGaussianBlur
         result="blur"
         in="SourceGraphic"
         stdDeviation="1.000000"
         id="feGaussianBlur40" /><feOffset
         result="offset"
         in="blur"
         dx="1.000000"
         dy="1.000000"
         id="feOffset40" /><feComposite
         result="comp1"
         operator="in"
         in="flood"
         in2="offset"
         id="feComposite40" /><feComposite
         result="comp2"
         operator="over"
         in="SourceGraphic"
         in2="comp1"
         id="feComposite41" /></filter></defs><path
     id="path3"
     style="display:inline;opacity:1;fill:#7ea5c3;fill-opacity:1;stroke:none;stroke-width:0.132292;stroke-dasharray:none;stroke-opacity:1;paint-order:stroke fill markers"
     inkscape:label="Base"
     d="m 10.861352,3.4395833 a 1.1244792,1.1244792 0 0 0 -1.1244788,1.1244791 1.1244792,1.1244792 0 0 0 1.1244788,1.1244792 1.1244792,1.1244792 0 0 0 1.12448,-1.1244792 1.1244792,1.1244792 0 0 0 -1.12448,-1.1244791 z m 0,2.2489583 H 10.583333 C 8.0682863,8.4628692 4.9081336,13.158998 8.4666666,17.594791 c -0.2520208,1.167412 -0.022403,2.274245 0.7937499,3.307292 0.4108432,0.136948 0.8216395,0.250264 1.2324825,0.344682 C 9.3977518,21.08458 8.285567,20.880598 6.0854166,20.902083 3.3212053,20.911883 2.2148937,21.99415 2.6458333,23.8125 4.757426,22.959499 7.7469058,23.234613 10.583333,23.283333 c 0.494699,-0.643798 1.940747,-1.17254 2.645833,-1.190625 0.705087,0.01809 2.151135,0.546827 2.645834,1.190625 2.836427,-0.04872 5.825907,-0.323834 7.9375,0.529167 0.430939,-1.81835 -0.675372,-2.900617 -3.439584,-2.910417 -2.20015,-0.02149 -3.312335,0.182497 -4.407482,0.344682 0.410843,-0.09442 0.821639,-0.207734 1.232482,-0.344682 0.79985,-1.019174 1.054928,-2.123089 0.79375,-3.307292 C 21.5502,13.158998 18.390046,8.4628692 15.875,5.6885416 H 15.596981 15.345833 C 14.676161,6.0368677 14.065943,6.4811032 13.506669,7.0037068 12.818601,6.4988846 12.027425,6.0547089 11.1125,5.6885416 Z m 4.735629,0 a 1.1244792,1.1244792 0 0 0 1.124479,-1.1244792 1.1244792,1.1244792 0 0 0 -1.124479,-1.1244791 1.1244792,1.1244792 0 0 0 -1.12448,1.1244791 1.1244792,1.1244792 0 0 0 1.12448,1.1244792 z" /><path
     id="path32"
     style="display:inline;opacity:1;fill:url(#linearGradient33);stroke:none;stroke-width:0.132292;stroke-dasharray:none;stroke-opacity:1;paint-order:stroke fill markers"
     inkscape:label="Gradient"
     d="m 10.861352,3.4395833 a 1.1244792,1.1244792 0 0 0 -1.1244788,1.1244791 1.1244792,1.1244792 0 0 0 1.1244788,1.1244792 1.1244792,1.1244792 0 0 0 1.12448,-1.1244792 1.1244792,1.1244792 0 0 0 -1.12448,-1.1244791 z m 0,2.2489583 H 10.583333 C 8.0682863,8.4628692 4.9081336,13.158998 8.4666666,17.594791 c -0.2520208,1.167412 -0.022403,2.274245 0.7937499,3.307292 0.4108432,0.136948 0.8216395,0.250264 1.2324825,0.344682 C 9.3977518,21.08458 8.285567,20.880598 6.0854166,20.902083 3.3212053,20.911883 2.2148937,21.99415 2.6458333,23.8125 4.757426,22.959499 7.7469058,23.234613 10.583333,23.283333 c 0.494699,-0.643798 1.940747,-1.17254 2.645833,-1.190625 0.705087,0.01809 2.151135,0.546827 2.645834,1.190625 2.836427,-0.04872 5.825907,-0.323834 7.9375,0.529167 0.430939,-1.81835 -0.675372,-2.900617 -3.439584,-2.910417 -2.20015,-0.02149 -3.312335,0.182497 -4.407482,0.344682 0.410843,-0.09442 0.821639,-0.207734 1.232482,-0.344682 0.79985,-1.019174 1.054928,-2.123089 0.79375,-3.307292 C 21.5502,13.158998 18.390046,8.4628692 15.875,5.6885416 H 15.596981 15.345833 C 14.676161,6.0368677 14.065943,6.4811032 13.506669,7.0037068 12.818601,6.4988846 12.027425,6.0547089 11.1125,5.6885416 Z m 4.735629,0 a 1.1244792,1.1244792 0 0 0 1.124479,-1.1244792 1.1244792,1.1244792 0 0 0 -1.124479,-1.1244791 1.1244792,1.1244792 0 0 0 -1.12448,1.1244791 1.1244792,1.1244792 0 0 0 1.12448,1.1244792 z"
     sodipodi:insensitive="true" /><path
     id="path25"
     style="display:inline;opacity:0.3;fill:#000000;fill-opacity:1;stroke:none;stroke-width:0.132292;stroke-dasharray:none;stroke-opacity:1;paint-order:stroke fill markers;filter:url(#filter32)"
     inkscape:label="Dark"
     d="m 11.272697,3.5181315 0.01447,0.127124 c 0.260887,0.7456883 0.118326,1.5594784 -0.671277,1.9502685 0.129117,0.1610733 0.414146,0.072688 0.689364,0 C 11.717636,5.4183421 11.985156,5.0128969 11.985832,4.5640624 11.985581,4.102017 11.702718,3.6871516 11.272697,3.5181315 Z m 4.884456,0.071313 -0.0098,0.023771 c 0.123834,0.8015677 0.08845,1.5500202 -0.799435,2.0143473 l 0.02532,0.035657 c 0.07355,0.015906 0.148513,0.024389 0.223759,0.025321 0.621033,-1e-7 1.124479,-0.5034466 1.124479,-1.1244792 -1.43e-4,-0.402447 -0.215352,-0.7741339 -0.564307,-0.9746175 z M 14.523144,6.1882527 C 14.171789,6.4299716 13.836693,6.6971001 13.519588,6.992338 l 0.0057,0.010335 c 1.479864,2.3737383 2.743418,4.732628 1.790589,6.938595 -0.610027,1.080875 -1.332151,2.072176 -2.366264,2.813781 h 1.151351 c 0.04136,0.76902 -0.06352,1.479035 -0.447518,2.07791 -0.463345,0.819758 -3.389972,0.737946 -4.540808,1.759065 l 0.00982,0.116272 c 0.046101,0.06459 0.087394,0.129763 0.137976,0.193787 0.4108424,0.136948 0.821641,0.250264 1.232482,0.344682 0.175768,0.02856 0.352935,0.05264 0.530201,0.07596 -0.641021,-0.08026 -1.2321028,-0.188623 -1.9678384,-0.275435 l 0.153479,0.183968 1.8226274,0.863513 -0.58136,1.016476 C 8.8636947,23.011727 7.1321568,22.477193 5.5836559,22.491129 4.5015377,22.500829 3.5088438,22.778993 2.717681,23.661601 l -0.058394,0.146244 c 2.0909247,-0.838631 5.0368135,-0.57884 7.843449,-0.526583 l 0.02222,-0.0739 0.129191,-0.0057 c 0.548479,-0.606142 1.900113,-1.091665 2.575036,-1.108976 0.564844,0.01449 1.604151,0.357184 2.249992,0.823722 0.06953,-0.668348 2.567951,-1.336697 4.441073,-2.005045 l -0.473873,-0.0026 c -1.864715,0.04063 -2.837081,0.259857 -3.932576,0.402559 0.150288,-0.02054 0.300146,-0.0398 0.451652,-0.0646 0.410841,-0.09442 0.821641,-0.207734 1.232482,-0.344682 0.79985,-1.019172 1.054928,-2.123091 0.79375,-3.307292 1.728343,-2.154415 1.869537,-4.369796 1.271757,-6.397025 0.0103,0.654611 -0.207341,1.177411 -0.845943,1.560111 -2.048066,-1.274558 -1.039541,-3.9075691 -3.894336,-6.5696246 z"
     sodipodi:nodetypes="cccccccccccccccccccccccccccccscccccccccccccccccc"
     sodipodi:insensitive="true" /><path
     id="path33"
     style="display:inline;opacity:0.3;mix-blend-mode:normal;fill:#ffffff;fill-opacity:1;stroke:none;stroke-width:0.132292;stroke-dasharray:none;stroke-opacity:1;paint-order:stroke fill markers;filter:url(#filter39)"
     inkscape:label="Light"
     d="m 10.861352,3.4395833 c -0.621033,2e-7 -1.1244787,0.5034466 -1.1244788,1.1244791 0.00564,0.329378 0.1554229,0.6397185 0.4097938,0.8490438 l 0.117306,-0.1054199 c -0.04853,-1.1160872 0.356275,-1.4219628 0.991154,-1.758549 l 0.0015,-0.031006 c -0.125969,-0.049778 -0.259895,-0.076388 -0.395325,-0.078548 z m 4.735629,0 c -0.621033,-4e-7 -1.12448,0.5034461 -1.12448,1.1244791 0.0067,0.093566 0.304904,0.9773 0.33456,1.0662959 -0.10305,-0.5384216 0.14281,-1.78939 1.412091,-2.0092131 -0.0014,-0.1479283 -0.478998,-0.1562725 -0.622171,-0.1815619 z M 10.493416,5.7908609 C 8.3328978,8.1991819 5.7688667,11.987897 7.3835286,15.80317 l 0.034623,-0.0078 C 8.3078949,9.5094093 11.097519,12.270497 10.493416,5.7908609 Z M 10.104293,17.07441 9.2407795,17.234607 8.4454792,17.723983 c -0.1918817,1.032421 6.028e-4,2.016577 0.6475057,2.943489 0.057179,-1.507331 0.32359,-2.967041 1.0113081,-3.593062 z m -4.0188764,3.827673 c -2.4039307,0.0085 -3.5524479,0.829111 -3.52795,2.238623 l 0.096635,0.04082 C 3.9747988,20.733654 6.5838415,22.2805 8.6651041,22.190377 8.9069962,21.792773 9.1818034,21.427824 9.592696,21.199223 L 8.9710285,21.037992 C 8.225145,20.953095 7.3407414,20.889825 6.0854166,20.902083 Z m 14.7396684,0.01292 -1.256254,0.763778 c 1.773028,-0.298739 2.837225,0.177777 3.932577,0.895552 0.133131,0.0076 0.241831,0.0016 0.334346,-0.01343 -0.252875,-0.971825 -1.243468,-1.556548 -3.010669,-1.645895 z"
     sodipodi:nodetypes="cccccccccccccccccccccccccccccccccsc" /><g
     inkscape:groupmode="layer"
     id="layer4"
     inkscape:label="Outline"
     style="display:inline;stroke:#000000;stroke-width:0.529167;stroke-dasharray:none;stroke-opacity:1"
     sodipodi:insensitive="true"><path
       id="path16"
       style="display:inline;opacity:1;fill:none;fill-opacity:1;stroke:#000000;stroke-width:0.529167;stroke-dasharray:none;stroke-opacity:1;paint-order:stroke fill markers"
       d="M 6.0854161,20.902083 C 3.321202,20.911883 2.214893,21.994148 2.645833,23.8125 c 2.1115948,-0.853002 5.1010698,-0.577887 7.9375,-0.529167 0.494699,-0.643799 1.940746,-1.17254 2.645833,-1.190625 0.705087,0.01809 2.151134,0.546826 2.645833,1.190625 2.83643,-0.04872 5.825905,-0.323835 7.9375,0.529167 0.43094,-1.818352 -0.675369,-2.900617 -3.439583,-2.910417 -3.783841,-0.03695 -4.353287,0.595467 -7.14375,0.529167 -2.790463,0.0663 -3.3599085,-0.566117 -7.1437499,-0.529167 z"
       sodipodi:nodetypes="ccccccccc"
       inkscape:label="Feet" /><path
       id="path17"
       style="display:inline;opacity:1;fill:none;fill-opacity:1;stroke:#000000;stroke-width:0.529167;stroke-linejoin:bevel;stroke-dasharray:none;stroke-opacity:1;paint-order:stroke fill markers"
       inkscape:label="Back"
       d="M 15.345833,5.6885416 C 14.67616,6.0368681 14.065944,6.4811027 13.506669,7.0037068 17.027567,9.586922 17.794429,13.787573 17.991666,17.594791 21.550203,13.158993 18.390049,8.462872 15.875,5.6885416 Z" /><path
       style="display:inline;opacity:1;fill:none;stroke:#000000;stroke-width:0.529167;stroke-dasharray:none;stroke-opacity:1;paint-order:stroke fill markers"
       d="M 8.4666661,17.594791 C 4.9081261,13.158988 8.0682809,8.4628748 10.583333,5.6885416 h 0.529166 c 5.596674,2.2398776 6.643384,7.3550034 6.879167,11.9062494 0.261178,1.184205 0.0061,2.288116 -0.79375,3.307292 -2.645833,0.881945 -5.291667,0.881945 -7.9374999,0 -0.8161547,-1.033049 -1.0457712,-2.139878 -0.79375,-3.307292 z"
       id="path18"
       sodipodi:nodetypes="ccccccc"
       inkscape:label="Front" /><path
       style="display:inline;opacity:1;fill:none;stroke:#000000;stroke-width:0.529167;stroke-dasharray:none;stroke-opacity:1;paint-order:stroke fill markers"
       d="m 9.260416,20.902083 c 2.676572,-0.719414 5.321216,-0.691584 7.9375,0"
       id="path19"
       sodipodi:nodetypes="cc"
       inkscape:label="BB" /><path
       style="display:inline;opacity:1;fill:none;stroke:#000000;stroke-width:0.529167;stroke-dasharray:none;stroke-opacity:1;paint-order:stroke fill markers"
       d="m 8.4666661,17.594791 c 3.1965649,-1.070658 6.3710669,-1.045949 9.5249999,0"
       id="path20"
       sodipodi:nodetypes="cc"
       inkscape:label="TB" /><path
       id="path21"
       style="display:inline;opacity:1;fill:none;fill-opacity:1;stroke:#000000;stroke-width:0.529167;stroke-dasharray:none;stroke-opacity:1;paint-order:stroke fill markers"
       d="M 11.985624,4.5640625 A 1.1244792,1.1244792 0 0 1 10.861145,5.6885416 1.1244792,1.1244792 0 0 1 9.736666,4.5640625 1.1244792,1.1244792 0 0 1 10.861145,3.4395833 1.1244792,1.1244792 0 0 1 11.985624,4.5640625 Z"
       inkscape:label="LC" /><path
       id="path22"
       style="display:inline;opacity:1;fill:none;fill-opacity:1;stroke:#000000;stroke-width:0.529167;stroke-dasharray:none;stroke-opacity:1;paint-order:stroke fill markers"
       d="M 16.721666,4.5640625 A 1.1244792,1.1244792 0 0 1 15.597187,5.6885416 1.1244792,1.1244792 0 0 1 14.472708,4.5640625 1.1244792,1.1244792 0 0 1 15.597187,3.4395833 1.1244792,1.1244792 0 0 1 16.721666,4.5640625 Z"
       inkscape:label="RC" /><path
       id="path23"
       style="display:inline;fill:none;fill-opacity:1;stroke:#000000;stroke-width:0.529167;stroke-dasharray:none;stroke-opacity:1;paint-order:stroke fill markers"
       d="M 10.936992,8.4146653 V 10.002164 H 9.8786586 v 1.182874 h 1.0583334 v 1.992126 h 1.322917 v -1.992126 h 1.058333 V 10.002164 H 12.259909 V 8.4146653 Z"
       inkscape:label="Cross" /></g></svg>
