<?xml version="1.0" encoding="UTF-8" standalone="no"?>
<!-- Created with Inkscape (http://www.inkscape.org/) -->

<svg
   width="100"
   height="100"
   viewBox="0 0 26.458333 26.458333"
   version="1.1"
   id="svg1"
   inkscape:version="1.3.2 (091e20e, 2023-11-25, custom)"
   sodipodi:docname="wK.svg"
   xml:space="preserve"
   xmlns:inkscape="http://www.inkscape.org/namespaces/inkscape"
   xmlns:sodipodi="http://sodipodi.sourceforge.net/DTD/sodipodi-0.dtd"
   xmlns:xlink="http://www.w3.org/1999/xlink"
   xmlns="http://www.w3.org/2000/svg"
   xmlns:svg="http://www.w3.org/2000/svg"><sodipodi:namedview
     id="namedview1"
     pagecolor="#ffffff"
     bordercolor="#000000"
     borderopacity="0.25"
     inkscape:showpageshadow="2"
     inkscape:pageopacity="0.0"
     inkscape:pagecheckerboard="0"
     inkscape:deskcolor="#d1d1d1"
     inkscape:document-units="px"
     inkscape:zoom="8.2747365"
     inkscape:cx="39.699149"
     inkscape:cy="50.575629"
     inkscape:window-width="1920"
     inkscape:window-height="1017"
     inkscape:window-x="1912"
     inkscape:window-y="-8"
     inkscape:window-maximized="1"
     inkscape:current-layer="svg1"
     showguides="false"><sodipodi:guide
       position="5.6885416,5.2916666"
       orientation="0,1"
       id="guide1"
       inkscape:locked="false"
       inkscape:label=""
       inkscape:color="rgb(0,134,229)" /></sodipodi:namedview><defs
     id="defs1"><linearGradient
       id="linearGradient11"
       inkscape:collect="always"><stop
         style="stop-color:#000000;stop-opacity:0;"
         offset="0.35365853"
         id="stop11" /><stop
         style="stop-color:#000000;stop-opacity:0.50196081;"
         offset="1"
         id="stop12" /></linearGradient><linearGradient
       inkscape:collect="always"
       xlink:href="#linearGradient11"
       id="linearGradient12"
       x1="-10.712357"
       y1="13.49375"
       x2="10.712357"
       y2="13.49375"
       gradientUnits="userSpaceOnUse"
       gradientTransform="translate(13.229166)" /><filter
       inkscape:collect="always"
       style="color-interpolation-filters:sRGB"
       id="filter23"
       x="-0.01282909"
       y="-0.011271567"
       width="1.0256582"
       height="1.0225431"><feGaussianBlur
         inkscape:collect="always"
         stdDeviation="0.091412062"
         id="feGaussianBlur23" /></filter><filter
       inkscape:collect="always"
       style="color-interpolation-filters:sRGB"
       id="filter30"
       x="-0.028089601"
       y="-0.025949912"
       width="1.0561792"
       height="1.0518998"><feGaussianBlur
         inkscape:collect="always"
         stdDeviation="0.20139165"
         id="feGaussianBlur30" /></filter><filter
       style="color-interpolation-filters:sRGB;"
       inkscape:label="Drop Shadow"
       id="filter32"
       x="-0.11202017"
       y="-0.11629316"
       width="1.2707154"
       height="1.2810418"><feFlood
         result="flood"
         in="SourceGraphic"
         flood-opacity="0.498039"
         flood-color="rgb(0,0,0)"
         id="feFlood30" /><feGaussianBlur
         result="blur"
         in="SourceGraphic"
         stdDeviation="1.000000"
         id="feGaussianBlur31" /><feOffset
         result="offset"
         in="blur"
         dx="1.000000"
         dy="1.000000"
         id="feOffset31" /><feComposite
         result="comp1"
         operator="in"
         in="flood"
         in2="offset"
         id="feComposite31" /><feComposite
         result="comp2"
         operator="over"
         in="SourceGraphic"
         in2="comp1"
         id="feComposite32" /></filter></defs><path
     id="path10"
     style="display:inline;opacity:1;fill:#ffe5c6;fill-opacity:1;stroke:none;stroke-width:0.529167;stroke-linejoin:bevel;stroke-dasharray:none;stroke-opacity:1;paint-order:stroke fill markers"
     d="m 10.847916,3.175 v 4.7624999 h 4.7625 V 3.175 Z M 7.3520054,6.7013997 C 6.2196188,6.6755487 5.1136055,7.022105 4.2333328,7.6729166 1.127245,10.152194 2.532043,13.910483 6.0854161,16.933333 l 0.79375,5.55625 c 0.5291657,0.661456 3.4395889,1.322917 6.3499999,1.322917 2.571731,0 5.758547,-0.583601 6.35,-1.322917 l 0.79375,-5.55625 c 3.553373,-3.02285 4.958171,-6.781139 1.852083,-9.2604164 C 19.095141,5.3589199 13.112971,6.888323 13.229166,15.345833 13.312681,9.2669977 10.245883,6.7674632 7.3520054,6.7013997 Z"
     inkscape:label="Base" /><path
     id="path11"
     style="display:inline;opacity:1;fill:url(#linearGradient12);stroke:none;stroke-width:0.529167;stroke-linejoin:bevel;stroke-dasharray:none;stroke-opacity:1;paint-order:stroke fill markers"
     d="m 10.847916,3.175 v 4.7624999 h 4.7625 V 3.175 Z M 7.3520054,6.7013997 C 6.2196188,6.6755487 5.1136055,7.022105 4.2333328,7.6729166 1.127245,10.152194 2.532043,13.910483 6.0854161,16.933333 l 0.79375,5.55625 c 0.5291657,0.661456 3.4395889,1.322917 6.3499999,1.322917 2.571731,0 5.758547,-0.583601 6.35,-1.322917 l 0.79375,-5.55625 c 3.553373,-3.02285 4.958171,-6.781139 1.852083,-9.2604164 C 19.095141,5.3589199 13.112971,6.888323 13.229166,15.345833 13.312681,9.2669977 10.245883,6.7674632 7.3520054,6.7013997 Z"
     inkscape:label="Gradient"
     sodipodi:insensitive="true" /><path
     id="path21"
     style="display:inline;opacity:0.3;fill:#000000;fill-opacity:1;stroke:none;stroke-width:0.529167;stroke-linecap:butt;stroke-linejoin:miter;stroke-dasharray:none;stroke-opacity:1;paint-order:stroke fill markers;filter:url(#filter23)"
     d="M 14.612545,4.3485717 10.967289,7.897709 13.091707,7.9375 h 1.30638 C 15.04379,6.4540604 14.971791,5.3295348 14.612545,4.3485717 Z m -4.060734,3.6132161 c 0.780282,2.5099682 1.6917,5.0169712 -1.3430709,7.6098712 L 11.159009,15.3479 13.109794,15.283821 V 13.167155 C 12.787792,10.700225 11.847103,9.0144838 10.647929,7.9840087 Z m 11.958443,0.3834391 c -0.992778,3.1210311 -2.929523,5.8528111 -9.24078,6.7789141 l 0.03204,0.255799 1.34307,-0.03204 0.802018,0.104387 -0.130741,0.08733 c 0.665641,2.096275 0.6449,3.496955 -2.973462,4.44469 C 11.319007,20.2295 9.8769966,20.593918 8.6010253,21.0075 l -1.5988688,0.959115 -0.1617472,0.251664 0.038757,0.271301 c 0.5291652,0.661455 3.4395917,1.322917 6.3499997,1.322917 2.571729,0 5.758548,-0.583602 6.35,-1.322917 l 0.442867,-3.101103 -1.368908,0.275953 -1.322917,-1.246953 1.455208,-0.415478 1.267623,1.169437 0.319877,-2.238106 c 3.222533,-2.741404 4.677672,-6.087834 2.603976,-8.5364296 z"
     inkscape:label="Dark"
     sodipodi:insensitive="true" /><path
     id="path23"
     style="display:inline;opacity:0.3;fill:#ffffff;fill-opacity:1;stroke:none;stroke-width:0.529167;stroke-linecap:butt;stroke-linejoin:miter;stroke-dasharray:none;stroke-opacity:1;paint-order:stroke fill markers;filter:url(#filter30)"
     d="m 10.847917,3.175 v 3.2592325 c 0.62471,-2.0734224 2.104579,-2.5698837 3.220992,-3.0768147 L 14.00793,3.175 Z M 7.3520059,6.7013997 C 6.2196205,6.6755487 5.1136051,7.0221056 4.2333333,7.6729166 1.6732283,9.7163908 2.1821155,12.62794 4.4281534,15.281238 l 0.2402954,0.0026 C 3.0232759,10.588704 3.8659037,7.4997219 8.5074909,6.8631469 8.1243102,6.7655754 7.7368873,6.710186 7.3520059,6.7013997 Z m 11.7543211,0 c -2.2841,0.052147 -4.674185,1.622378 -5.539713,5.2699623 l 0.661975,0.882634 c 0.0052,-3.5674921 1.937804,-5.1482833 5.435844,-5.8192834 l 0.06149,-0.3074747 c -0.204989,-0.019974 -0.411588,-0.030587 -0.6196,-0.025838 z m -3.495911,1.1611694 -0.09767,0.074931 h 0.09767 z m -9.2795364,9.0201209 -0.022221,1.611788 0.096635,0.676961 1.2676229,-1.169437 1.4552083,0.415478 -1.3229167,1.246953 -1.3689086,-0.275953 0.309025,2.16576 c 0.031703,0.07391 0.064302,0.130093 0.097152,0.156579 0.5388222,0.434448 1.6160516,-0.808816 2.3983656,-1.470774 C 9.916897,19.424638 8.6564861,18.013866 7.5780875,17.458432 7.3604138,16.941188 7.1367601,16.736779 6.3308796,16.88269 Z m 6.8982864,0.315226 c -0.876752,0 -1.587499,0.414603 -1.587499,0.926042 8.72e-4,0.339739 0.320592,0.651923 0.833024,0.813387 l -0.06821,-0.232027 c -0.101571,-0.587614 0.678759,-1.018496 1.246952,-1.438672 l -0.02015,-0.03772 c -0.131859,-0.02042 -0.267682,-0.03085 -0.40411,-0.03101 z"
     inkscape:label="Light"
     sodipodi:nodetypes="cccccsccccscccccccccccccccccccccccscccccss"
     sodipodi:insensitive="true" /><g
     inkscape:groupmode="layer"
     id="layer4"
     inkscape:label="Outline"
     style="display:inline;fill:none;stroke:#000000;stroke-width:0.529167;stroke-dasharray:none;stroke-opacity:1"
     sodipodi:insensitive="true"><path
       id="path12"
       style="opacity:1;fill:none;fill-opacity:0.795673;stroke:#000000;stroke-width:0.529167;stroke-linejoin:bevel;stroke-dasharray:none;stroke-opacity:1;paint-order:stroke fill markers"
       d="M 7.3520054,6.7013997 C 6.2196176,6.6755487 5.1136064,7.0221044 4.2333328,7.6729166 1.127242,10.152197 2.532039,13.91048 6.0854161,16.933333 l 0.79375,5.55625 c 0.5291662,0.661457 3.4395859,1.322917 6.3499999,1.322917 2.571734,0 5.758546,-0.5836 6.35,-1.322917 l 0.79375,-5.55625 C 23.926293,13.91048 25.33109,10.152197 22.224999,7.6729166 19.095138,5.3589176 13.112971,6.8883144 13.229166,15.345833 13.312681,9.2669915 10.245885,6.7674633 7.3520054,6.7013997 Z"
       sodipodi:nodetypes="scccsccccs"
       inkscape:label="Body" /><path
       id="path13"
       style="opacity:1;fill:none;fill-opacity:0.795673;stroke:#000000;stroke-width:0.529167;stroke-linecap:butt;stroke-linejoin:miter;stroke-dasharray:none;stroke-opacity:1;paint-order:stroke fill markers"
       d="m 10.847916,3.175 h 4.7625 v 4.7624998 h -4.7625 z"
       inkscape:label="Top" /><path
       style="opacity:1;fill:none;fill-opacity:0.795673;stroke:#000000;stroke-width:0.529167;stroke-linecap:butt;stroke-linejoin:miter;stroke-dasharray:none;stroke-opacity:1;paint-order:stroke fill markers"
       d="m 10.847916,3.175 4.7625,4.7624999"
       id="path14"
       inkscape:label="C2" /><path
       style="opacity:1;fill:none;fill-opacity:0.795673;stroke:#000000;stroke-width:0.529167;stroke-linecap:butt;stroke-linejoin:miter;stroke-dasharray:none;stroke-opacity:1;paint-order:stroke fill markers"
       d="m 15.610416,3.175 -4.7625,4.7624999"
       id="path15"
       inkscape:label="C1" /><path
       style="opacity:1;fill:none;fill-opacity:0.795673;stroke:#000000;stroke-width:0.529167;stroke-linecap:butt;stroke-linejoin:miter;stroke-dasharray:none;stroke-opacity:1;paint-order:stroke fill markers"
       d="m 6.0854161,16.933333 c 4.6798769,-2.051064 9.4371239,-2.181442 14.2874999,0"
       id="path16"
       sodipodi:nodetypes="cc"
       inkscape:label="TB" /><path
       style="opacity:1;fill:none;fill-opacity:0.795673;stroke:#000000;stroke-width:0.529167;stroke-linecap:butt;stroke-linejoin:miter;stroke-dasharray:none;stroke-opacity:1;paint-order:stroke fill markers"
       d="m 6.8791661,22.489583 c 0.6614583,-1.322917 3.1752189,-1.719792 6.3502189,-1.719792 3.175,0 5.688323,0.396875 6.349781,1.719792"
       id="path17"
       sodipodi:nodetypes="ccc"
       inkscape:label="BB" /><path
       id="path18"
       style="opacity:1;fill:none;fill-opacity:0.795673;stroke:#000000;stroke-width:0.529167;stroke-dasharray:none;stroke-opacity:1;paint-order:stroke fill markers"
       d="m 14.816666,18.123958 a 1.5875,0.9260415 0 0 1 -1.5875,0.926041 1.5875,0.9260415 0 0 1 -1.5875,-0.926041 1.5875,0.9260415 0 0 1 1.5875,-0.926042 1.5875,0.9260415 0 0 1 1.5875,0.926042 z"
       inkscape:label="CJ" /><path
       id="path19"
       style="opacity:1;fill:none;fill-opacity:0.795673;stroke:#000000;stroke-width:0.529167;stroke-linecap:butt;stroke-linejoin:miter;stroke-dasharray:none;stroke-opacity:1;paint-order:stroke fill markers"
       inkscape:label="LJ"
       d="M 7.6729166,18.002002 6.4052937,19.171439 6.4362997,19.38848 7.8052083,19.664433 9.128125,18.41748 Z" /><path
       id="path20"
       style="opacity:1;fill:none;fill-opacity:0.795673;stroke:#000000;stroke-width:0.529167;stroke-linecap:butt;stroke-linejoin:miter;stroke-dasharray:none;stroke-opacity:1;paint-order:stroke fill markers"
       inkscape:label="RJ"
       d="m 18.785416,18.002002 -1.455208,0.415478 1.322917,1.246953 1.368908,-0.275953 0.03101,-0.217041 z" /></g></svg>
