<?xml version="1.0" encoding="UTF-8" standalone="no"?>
<!-- Created with Inkscape (http://www.inkscape.org/) -->

<svg
   width="100"
   height="100"
   viewBox="0 0 26.458333 26.458333"
   version="1.1"
   id="svg1"
   xml:space="preserve"
   inkscape:version="1.3.2 (091e20e, 2023-11-25, custom)"
   sodipodi:docname="wP.svg"
   xmlns:inkscape="http://www.inkscape.org/namespaces/inkscape"
   xmlns:sodipodi="http://sodipodi.sourceforge.net/DTD/sodipodi-0.dtd"
   xmlns:xlink="http://www.w3.org/1999/xlink"
   xmlns="http://www.w3.org/2000/svg"
   xmlns:svg="http://www.w3.org/2000/svg"><sodipodi:namedview
     id="namedview1"
     pagecolor="#ffffff"
     bordercolor="#000000"
     borderopacity="0.25"
     inkscape:showpageshadow="2"
     inkscape:pageopacity="0.0"
     inkscape:pagecheckerboard="0"
     inkscape:deskcolor="#d1d1d1"
     inkscape:document-units="px"
     showguides="true"
     inkscape:zoom="5.8511223"
     inkscape:cx="43.495929"
     inkscape:cy="46.05954"
     inkscape:window-width="1920"
     inkscape:window-height="1017"
     inkscape:window-x="1912"
     inkscape:window-y="-8"
     inkscape:window-maximized="1"
     inkscape:current-layer="svg1" /><defs
     id="defs1"><linearGradient
       id="linearGradient9"
       inkscape:collect="always"><stop
         style="stop-color:#000000;stop-opacity:0;"
         offset="0.34959349"
         id="stop9" /><stop
         style="stop-color:#000000;stop-opacity:0.5;"
         offset="1"
         id="stop10" /></linearGradient><filter
       inkscape:collect="always"
       style="color-interpolation-filters:sRGB"
       id="filter23"
       x="-0.01765752"
       y="-0.0086139766"
       width="1.035315"
       height="1.017228"><feGaussianBlur
         inkscape:collect="always"
         stdDeviation="0.06548579"
         id="feGaussianBlur23" /></filter><filter
       inkscape:collect="always"
       style="color-interpolation-filters:sRGB"
       id="filter26"
       x="-0.024451026"
       y="-0.0093415974"
       width="1.0489021"
       height="1.0186832"><feGaussianBlur
         inkscape:collect="always"
         stdDeviation="0.071560232"
         id="feGaussianBlur26" /></filter><filter
       style="color-interpolation-filters:sRGB;"
       inkscape:label="Drop Shadow"
       id="filter28"
       x="-0.18141732"
       y="-0.13051606"
       width="1.4384252"
       height="1.3154138"><feFlood
         result="flood"
         in="SourceGraphic"
         flood-opacity="0.498039"
         flood-color="rgb(0,0,0)"
         id="feFlood26" /><feGaussianBlur
         result="blur"
         in="SourceGraphic"
         stdDeviation="1.000000"
         id="feGaussianBlur27" /><feOffset
         result="offset"
         in="blur"
         dx="1.000000"
         dy="1.000000"
         id="feOffset27" /><feComposite
         result="comp1"
         operator="in"
         in="flood"
         in2="offset"
         id="feComposite27" /><feComposite
         result="comp2"
         operator="over"
         in="SourceGraphic"
         in2="comp1"
         id="feComposite28" /></filter><linearGradient
       inkscape:collect="always"
       xlink:href="#linearGradient9"
       id="linearGradient10"
       x1="6.6145832"
       y1="14.618229"
       x2="19.84375"
       y2="14.618229"
       gradientUnits="userSpaceOnUse" /><filter
       style="color-interpolation-filters:sRGB;"
       inkscape:label="Drop Shadow"
       id="filter17"
       x="-0.18141732"
       y="-0.13051606"
       width="1.4384252"
       height="1.3154138"><feFlood
         result="flood"
         in="SourceGraphic"
         flood-opacity="0.498039"
         flood-color="rgb(0,0,0)"
         id="feFlood16" /><feGaussianBlur
         result="blur"
         in="SourceGraphic"
         stdDeviation="1.000000"
         id="feGaussianBlur16" /><feOffset
         result="offset"
         in="blur"
         dx="1.000000"
         dy="1.000000"
         id="feOffset16" /><feComposite
         result="comp1"
         operator="in"
         in="flood"
         in2="offset"
         id="feComposite16" /><feComposite
         result="comp2"
         operator="over"
         in="SourceGraphic"
         in2="comp1"
         id="feComposite17" /></filter></defs><path
     id="path4"
     style="display:inline;opacity:1;fill:#ffe5c6;fill-opacity:1;stroke:none;stroke-width:0.132292;stroke-dasharray:none;stroke-opacity:1;paint-order:stroke fill markers"
     d="m 13.229166,5.4239583 a 1.6536458,1.6536458 0 0 0 -1.653645,1.6536458 1.6536458,1.6536458 0 0 0 1.097607,1.5528767 C 11.874884,9.6149941 10.780839,9.9338761 9.6572915,10.186458 8.2709486,10.556286 7.5630379,11.39247 7.5406249,12.7 h 4.1010421 c 0,4.167506 -3.0566186,4.705609 -0.529167,6.879166 l -0.132292,1.455209 c -1.7197876,0 -4.298258,0.334912 -4.3656248,2.778125 H 19.84375 C 19.77638,21.369287 17.197913,21.034375 15.478125,21.034375 L 15.345833,19.579166 C 17.873212,17.405672 14.816666,16.867294 14.816666,12.7 h 4.101042 C 18.895295,11.39247 18.187384,10.556286 16.801041,10.186458 15.677495,9.9338761 14.583449,9.6149941 13.785205,8.6304808 A 1.6536458,1.6536458 0 0 0 14.882812,7.0776041 1.6536458,1.6536458 0 0 0 13.229166,5.4239583 Z"
     inkscape:label="Base" /><path
     id="path9"
     style="display:inline;opacity:1;fill:url(#linearGradient10);stroke:none;stroke-width:0.132292;stroke-dasharray:none;stroke-opacity:1;paint-order:stroke fill markers"
     d="m 13.229166,5.4239583 a 1.6536458,1.6536458 0 0 0 -1.653645,1.6536458 1.6536458,1.6536458 0 0 0 1.097607,1.5528767 C 11.874884,9.6149941 10.780839,9.9338761 9.6572915,10.186458 8.2709486,10.556286 7.5630379,11.39247 7.5406249,12.7 h 4.1010421 c 0,4.167506 -3.0566186,4.705609 -0.529167,6.879166 l -0.132292,1.455209 c -1.7197876,0 -4.298258,0.334912 -4.3656248,2.778125 H 19.84375 C 19.77638,21.369287 17.197913,21.034375 15.478125,21.034375 L 15.345833,19.579166 C 17.873212,17.405672 14.816666,16.867294 14.816666,12.7 h 4.101042 C 18.895295,11.39247 18.187384,10.556286 16.801041,10.186458 15.677495,9.9338761 14.583449,9.6149941 13.785205,8.6304808 A 1.6536458,1.6536458 0 0 0 14.882812,7.0776041 1.6536458,1.6536458 0 0 0 13.229166,5.4239583 Z"
     inkscape:label="Gradient"
     sodipodi:insensitive="true" /><path
     id="path20"
     style="display:inline;opacity:0.3;fill:#000000;fill-opacity:1;stroke:none;stroke-width:0.132292;stroke-dasharray:none;stroke-opacity:1;paint-order:stroke fill markers;filter:url(#filter23)"
     d="m 13.901994,5.567102 c 0.51152,1.8152026 -0.20916,2.6125005 -1.655713,2.8101643 0.707853,0.4896197 1.164424,0.3800304 1.599902,0.2201416 0.621456,-0.2499008 1.030779,-0.8500101 1.036629,-1.5198038 -3e-5,-0.6529909 -0.384322,-1.2448162 -0.980818,-1.5105021 z M 13.131372,19.72168 c -0.845434,0.901744 -1.180925,0.959365 -2.188413,1.395588 0.548477,0.0023 2.81934,-0.0857 3.367796,-0.0896 l 0.0041,0.0067 h 1.163237 L 15.3458,19.579166 c 1.868788,-1.60712 0.374281,-3.867491 -0.529167,-5.159375 V 12.7 h 4.101042 c -0.01928,-1.125058 -0.547858,-1.899791 -1.577681,-2.33009 h 3.3e-5 c 0.683696,0.91386 -0.418249,1.665389 -2.543514,2.323889 l -2.359001,-0.04522 c 2.061062,1.691408 1.726156,5.501362 1.777555,6.847906 m 0.102405,1.542595 c 0.820469,0.63056 1.541482,1.368865 1.647445,2.773474 H 19.84375 C 19.365931,21.304003 17.578818,21.062699 14.317472,21.03908 Z"
     sodipodi:nodetypes="ccccccccccccccccccccccc"
     inkscape:label="Dark"
     sodipodi:insensitive="true" /><path
     id="path23"
     style="display:inline;opacity:0.3;fill:#ffffff;fill-opacity:1;stroke:none;stroke-width:0.132292;stroke-dasharray:none;stroke-opacity:1;paint-order:stroke fill markers;filter:url(#filter26)"
     d="m 13.638606,5.4275756 c -0.903187,0.012136 -2.061191,0.746762 -2.063085,1.6500285 0.0082,0.4113768 0.16937,0.8049395 0.452168,1.1038086 0.151341,-1.1533147 1.00584,-2.1574629 1.610917,-2.7538371 z M 12.323795,9.0020344 C 11.57004,9.7007491 10.624915,9.9689292 9.6572915,10.186458 8.27095,10.556286 7.5630379,11.392471 7.5406249,12.7 H 9.6996662 V 12.68398 C 8.8341158,10.432733 12.506192,10.727803 12.323795,9.0020344 Z m -0.759126,5.5309286 c -0.881532,1.269557 -2.1924103,3.358818 -0.598413,4.911328 -0.0107,-1.298066 0.257002,-1.739296 0.74569,-2.351278 0.698218,-0.805986 1.108965,-3.172128 0.182935,-4.399214 z m -0.583944,6.495211 -5.17e-4,0.0062 h 0.109037 z m 0.372587,0.02119 C 8.5852031,21.117073 7.0529863,21.510883 6.6145832,23.8125 H 8.5917235 V 23.8078 C 8.839164,21.663116 10.420196,21.554165 11.756905,21.07205 Z"
     inkscape:label="Light"
     sodipodi:nodetypes="ccccccccccccccccccccccccc"
     sodipodi:insensitive="true" /><g
     inkscape:groupmode="layer"
     id="layer3"
     inkscape:label="Outline"
     style="fill:none;stroke:#000000;stroke-width:0.529167;stroke-dasharray:none;stroke-opacity:1"
     sodipodi:insensitive="true"><path
       id="path10"
       style="display:inline;opacity:1;fill:none;stroke:#000000;stroke-width:0.529167;stroke-dasharray:none;stroke-opacity:1;paint-order:stroke fill markers"
       d="m 10.980208,21.034375 c -1.7197895,0 -4.298258,0.33491 -4.3656248,2.778125 H 19.84375 c -0.06737,-2.443215 -2.645835,-2.778125 -4.365625,-2.778125 z"
       sodipodi:nodetypes="sccss" /><path
       id="path12"
       style="display:inline;opacity:1;fill:none;fill-opacity:0.795673;stroke:#000000;stroke-width:0.529167;stroke-dasharray:none;stroke-opacity:1;paint-order:stroke fill markers"
       d="m 11.641666,12.7 c 0,4.16751 -3.056621,4.705606 -0.529167,6.879166 l -0.132291,1.455209 h 4.497916 L 15.345833,19.579166 C 17.873214,17.405669 14.816666,16.867298 14.816666,12.7 Z"
       sodipodi:nodetypes="ccccccc" /><path
       id="path13"
       style="display:inline;opacity:1;fill:none;fill-opacity:0.795673;stroke:#000000;stroke-width:0.529167;stroke-dasharray:none;stroke-opacity:1;paint-order:stroke fill markers"
       d="M 12.673128,8.6304808 C 11.874884,9.6149941 10.780839,9.9338761 9.6572915,10.186458 8.2709486,10.556286 7.5630379,11.39247 7.5406249,12.7 H 18.917708 C 18.895295,11.39247 18.187384,10.556286 16.801041,10.186458 15.677495,9.9338761 14.583449,9.6149941 13.785205,8.6304808 A 1.6536458,1.6536458 0 0 1 13.229166,8.7312499 1.6536458,1.6536458 0 0 1 12.673128,8.6304808 Z" /><path
       id="path14"
       style="display:inline;opacity:1;fill:none;fill-opacity:0.795673;stroke:#000000;stroke-width:0.529167;stroke-dasharray:none;stroke-opacity:1;paint-order:stroke fill markers"
       d="M 14.882812,7.0776038 A 1.6536458,1.6536458 0 0 1 13.229166,8.7312496 1.6536458,1.6536458 0 0 1 11.57552,7.0776038 1.6536458,1.6536458 0 0 1 13.229166,5.4239581 1.6536458,1.6536458 0 0 1 14.882812,7.0776038 Z" /><path
       style="display:inline;opacity:1;fill:none;stroke:#000000;stroke-width:0.529167;stroke-dasharray:none;stroke-opacity:1;paint-order:stroke fill markers"
       d="m 11.1125,19.579166 h 4.233333"
       id="path15" /></g></svg>
