<?xml version="1.0" encoding="UTF-8" standalone="no"?>
<!-- Created with Inkscape (http://www.inkscape.org/) -->

<svg
   width="100"
   height="100"
   viewBox="0 0 26.458333 26.458333"
   version="1.1"
   id="svg1"
   xml:space="preserve"
   inkscape:version="1.3.2 (091e20e, 2023-11-25, custom)"
   sodipodi:docname="wR.svg"
   xmlns:inkscape="http://www.inkscape.org/namespaces/inkscape"
   xmlns:sodipodi="http://sodipodi.sourceforge.net/DTD/sodipodi-0.dtd"
   xmlns:xlink="http://www.w3.org/1999/xlink"
   xmlns="http://www.w3.org/2000/svg"
   xmlns:svg="http://www.w3.org/2000/svg"><sodipodi:namedview
     id="namedview1"
     pagecolor="#ffffff"
     bordercolor="#000000"
     borderopacity="0.25"
     inkscape:showpageshadow="2"
     inkscape:pageopacity="0.0"
     inkscape:pagecheckerboard="0"
     inkscape:deskcolor="#d1d1d1"
     inkscape:document-units="px"
     inkscape:zoom="5.8511223"
     inkscape:cx="57.852149"
     inkscape:cy="58.535779"
     inkscape:window-width="1920"
     inkscape:window-height="1017"
     inkscape:window-x="1912"
     inkscape:window-y="-8"
     inkscape:window-maximized="1"
     inkscape:current-layer="svg1" /><defs
     id="defs1"><linearGradient
       id="linearGradient29"
       inkscape:collect="always"><stop
         style="stop-color:#000000;stop-opacity:0;"
         offset="0.3490099"
         id="stop29" /><stop
         style="stop-color:#000000;stop-opacity:0.50196081;"
         offset="1"
         id="stop30" /></linearGradient><filter
       inkscape:collect="always"
       style="color-interpolation-filters:sRGB"
       id="filter28"
       x="-0.019602269"
       y="-0.0086466094"
       width="1.0392045"
       height="1.0172932"><feGaussianBlur
         inkscape:collect="always"
         stdDeviation="0.067202607"
         id="feGaussianBlur28" /></filter><filter
       inkscape:collect="always"
       style="color-interpolation-filters:sRGB"
       id="filter29"
       x="-0.020917765"
       y="-0.0084132299"
       width="1.0418355"
       height="1.0168265"><feGaussianBlur
         inkscape:collect="always"
         stdDeviation="0.065388774"
         id="feGaussianBlur29" /></filter><linearGradient
       inkscape:collect="always"
       xlink:href="#linearGradient29"
       id="linearGradient30"
       x1="-7.9374999"
       y1="14.485937"
       x2="7.9374999"
       y2="14.485937"
       gradientUnits="userSpaceOnUse"
       gradientTransform="translate(13.229166)" /><filter
       style="color-interpolation-filters:sRGB;"
       inkscape:label="Drop Shadow"
       id="filter31"
       x="-0.1511811"
       y="-0.12866477"
       width="1.3653543"
       height="1.3109399"><feFlood
         result="flood"
         in="SourceGraphic"
         flood-opacity="0.498039"
         flood-color="rgb(0,0,0)"
         id="feFlood30" /><feGaussianBlur
         result="blur"
         in="SourceGraphic"
         stdDeviation="1.000000"
         id="feGaussianBlur30" /><feOffset
         result="offset"
         in="blur"
         dx="1.000000"
         dy="1.000000"
         id="feOffset30" /><feComposite
         result="comp1"
         operator="in"
         in="flood"
         in2="offset"
         id="feComposite30" /><feComposite
         result="comp2"
         operator="over"
         in="SourceGraphic"
         in2="comp1"
         id="feComposite31" /></filter></defs><path
     style="display:inline;opacity:1;fill:#ffe5c6;fill-opacity:1;stroke:none;stroke-width:0.264583;stroke-dasharray:none;stroke-opacity:1;paint-order:stroke fill markers"
     d="M 8.0697911,9.7895832 V 19.314583 C 5.8208328,20.240625 5.2916661,21.828125 5.2916661,23.8125 H 21.166666 c 0,-1.984375 -0.529167,-3.571875 -2.778125,-4.497917 V 9.7895832 l 1.852083,-1.8520833 v -2.778125 h -2.38125 v 1.8520833 h -3.175 V 5.1593749 H 11.773958 V 7.0114582 H 8.5989577 V 5.1593749 H 6.2177078 v 2.778125 z"
     id="path19"
     sodipodi:nodetypes="ccccccccccccccccccc"
     inkscape:label="Base" /><path
     style="display:inline;opacity:1;fill:url(#linearGradient30);stroke:none;stroke-width:0.264583;stroke-dasharray:none;stroke-opacity:1;paint-order:stroke fill markers"
     d="M 8.0697911,9.7895832 V 19.314583 C 5.8208328,20.240625 5.2916661,21.828125 5.2916661,23.8125 H 21.166666 c 0,-1.984375 -0.529167,-3.571875 -2.778125,-4.497917 V 9.7895832 l 1.852083,-1.8520833 v -2.778125 h -2.38125 v 1.8520833 h -3.175 V 5.1593749 H 11.773958 V 7.0114582 H 8.5989577 V 5.1593749 H 6.2177078 v 2.778125 z"
     id="path29"
     sodipodi:nodetypes="ccccccccccccccccccc"
     inkscape:label="Gradient"
     sodipodi:insensitive="true" /><path
     id="path24"
     style="display:inline;opacity:0.3;mix-blend-mode:normal;fill:#ffffff;fill-opacity:1;stroke:none;stroke-width:0.529167;stroke-dasharray:none;stroke-opacity:1;paint-order:stroke fill markers;filter:url(#filter28)"
     d="m 6.2177078,5.1593749 v 2.778125 l 0.6340698,0.6340698 0.046509,-0.034106 V 6.4590372 C 7.1957138,5.7221691 7.5715445,5.4570799 7.9421505,5.1593749 Z m 5.5562502,0 v 1.8102254 l 0.176216,0.1286744 c 0.126244,-1.079426 0.820125,-1.539508 1.56683,-1.8541504 0,0 0.0018,-0.071711 0.0026,-0.084749 z m -3.6927981,4.6250407 -0.011369,0.011885 v 9.5115634 l 0.043408,0.0052 C 9.9277686,14.267612 9.3652053,8.5506385 8.0811599,9.7844471 Z m 2.6220621,3.1972214 0.09605,2.877797 c 0.59016,-1.318451 0.119572,-2.868893 1.40676,-2.813911 z m -0.639754,6.331396 -2.0810101,0.04082 c -2.1726174,0.931135 -2.6907918,2.501196 -2.6907918,4.458643 h 1.8081583 c 0.1999985,-1.783517 0.6954408,-3.4605 2.9636436,-4.499467 z"
     inkscape:label="Light"
     sodipodi:nodetypes="ccccccccccccccccccccccccccccc"
     sodipodi:insensitive="true" /><path
     id="path28"
     style="opacity:0.3;fill:#000000;fill-opacity:1;stroke:none;stroke-width:0.529167;stroke-dasharray:none;stroke-opacity:1;paint-order:stroke fill markers;filter:url(#filter29)"
     d="m 13.664282,5.1593749 0.01705,2.166276 C 14.015679,7.1590894 14.35003,7.01246 14.684374,6.9060383 V 5.1593749 Z m 5.355745,0 c 8.64e-4,1.440755 0.09157,2.8930165 -0.367936,4.2762248 l 1.588533,-1.4980998 v -2.778125 z m -2.408638,4.6074707 c -0.599764,0.00397 -1.1996,0.011819 -1.799374,0.022738 1.901274,1.9738224 1.896484,6.6930484 1.875366,9.5415364 l -1.875366,0.02274 c 0.623974,1.015997 1.045544,2.334924 0.949296,4.431254 l 0.06511,0.02739 h 5.340243 c 0,-1.984371 -0.529171,-3.571877 -2.778125,-4.497917 V 9.7895832 l 0.02222,-0.022221 c -0.599914,-0.00459 -1.19961,-0.00449 -1.799373,-5.166e-4 z"
     inkscape:label="Dark"
     sodipodi:nodetypes="cccccccccccccccccccccc"
     sodipodi:insensitive="true" /><g
     inkscape:groupmode="layer"
     id="layer3"
     inkscape:label="Outline"
     style="display:inline;stroke:#000000;stroke-width:0.529167;stroke-dasharray:none;stroke-opacity:1"
     sodipodi:insensitive="true"><path
       style="display:inline;opacity:1;fill:none;stroke:#000000;stroke-width:0.529167;stroke-dasharray:none;stroke-opacity:1;paint-order:stroke fill markers"
       d="M 8.0697911,9.7895832 V 19.314583 C 5.8208328,20.240625 5.2916661,21.828125 5.2916661,23.8125 H 21.166666 c 0,-1.984375 -0.529167,-3.571875 -2.778125,-4.497917 V 9.7895832 l 1.852083,-1.8520833 v -2.778125 h -2.38125 v 1.8520833 h -3.175 V 5.1593749 H 11.773958 V 7.0114582 H 8.5989577 V 5.1593749 H 6.2177078 v 2.778125 z"
       id="path10"
       sodipodi:nodetypes="ccccccccccccccccccc"
       inkscape:label="Tower" /><path
       style="display:inline;opacity:1;fill:none;stroke:#000000;stroke-width:0.529167;stroke-dasharray:none;stroke-opacity:1;paint-order:stroke fill markers"
       d="M 8.0697911,9.7895832 H 18.388541"
       id="path11"
       inkscape:label="Tar" /><path
       style="display:inline;opacity:1;fill:none;stroke:#000000;stroke-width:0.529167;stroke-dasharray:none;stroke-opacity:1;paint-order:stroke fill markers"
       d="M 8.0697911,19.314583 H 18.388541"
       id="path12"
       inkscape:label="Bar" /><path
       style="display:inline;opacity:1;fill:none;stroke:#000000;stroke-width:0.529167;stroke-dasharray:none;stroke-opacity:1;paint-order:stroke fill markers"
       d="M 8.0697911,12.964585 H 18.388541"
       id="path13"
       inkscape:label="Tmar" /><path
       style="display:inline;opacity:1;fill:none;stroke:#000000;stroke-width:0.529167;stroke-dasharray:none;stroke-opacity:1;paint-order:stroke fill markers"
       d="M 8.0697911,16.139587 H 18.388541"
       id="path14"
       inkscape:label="Bmar" /><path
       style="display:inline;opacity:1;fill:none;stroke:#000000;stroke-width:0.529167;stroke-dasharray:none;stroke-opacity:1;paint-order:stroke fill markers"
       d="M 13.229166,9.7895832 V 12.964585"
       id="path15"
       sodipodi:nodetypes="cc"
       inkscape:label="tc" /><path
       style="display:inline;opacity:1;fill:none;stroke:#000000;stroke-width:0.529167;stroke-dasharray:none;stroke-opacity:1;paint-order:stroke fill markers"
       d="m 13.229166,16.139587 v 3.175002"
       id="path16"
       sodipodi:nodetypes="cc" /><path
       style="display:inline;opacity:1;fill:none;stroke:#000000;stroke-width:0.529167;stroke-dasharray:none;stroke-opacity:1;paint-order:stroke fill markers"
       d="m 10.715625,12.964585 v 3.175002"
       id="path17" /><path
       style="display:inline;opacity:1;fill:none;stroke:#000000;stroke-width:0.529167;stroke-dasharray:none;stroke-opacity:1;paint-order:stroke fill markers"
       d="m 15.742708,12.964585 v 3.175002"
       id="path18"
       sodipodi:nodetypes="cc" /></g></svg>
