<?xml version="1.0" encoding="UTF-8" standalone="no"?>
<!-- Created with Inkscape (http://www.inkscape.org/) -->

<svg
   width="800mm"
   height="800mm"
   viewBox="0 0 800 800"
   version="1.1"
   id="svg1"
   inkscape:version="1.3.2 (091e20e, 2023-11-25, custom)"
   sodipodi:docname="wine.svg"
   inkscape:export-filename="board.png"
   inkscape:export-xdpi="96"
   inkscape:export-ydpi="96"
   xmlns:inkscape="http://www.inkscape.org/namespaces/inkscape"
   xmlns:sodipodi="http://sodipodi.sourceforge.net/DTD/sodipodi-0.dtd"
   xmlns="http://www.w3.org/2000/svg"
   xmlns:svg="http://www.w3.org/2000/svg">
  <sodipodi:namedview
     id="namedview1"
     pagecolor="#000000"
     bordercolor="#000000"
     borderopacity="0.25"
     inkscape:showpageshadow="2"
     inkscape:pageopacity="0.0"
     inkscape:pagecheckerboard="false"
     inkscape:deskcolor="#000000"
     inkscape:document-units="mm"
     inkscape:zoom="0.18284757"
     inkscape:cx="210.5579"
     inkscape:cy="1654.3835"
     inkscape:window-width="1920"
     inkscape:window-height="1017"
     inkscape:window-x="1912"
     inkscape:window-y="-8"
     inkscape:window-maximized="1"
     inkscape:current-layer="layer1">
    <sodipodi:guide
       position="0,799.99999"
       orientation="0,3023.622"
       id="guide1"
       inkscape:locked="false" />
    <sodipodi:guide
       position="799.99999,799.99999"
       orientation="3023.622,0"
       id="guide2"
       inkscape:locked="false" />
    <sodipodi:guide
       position="799.99999,0"
       orientation="0,-3023.622"
       id="guide3"
       inkscape:locked="false" />
    <sodipodi:guide
       position="0,0"
       orientation="-3023.622,0"
       id="guide4"
       inkscape:locked="false" />
  </sodipodi:namedview>
  <defs
     id="defs1" />
  <g
     inkscape:label="Layer 1"
     inkscape:groupmode="layer"
     id="layer1"
     style="opacity:1">
    <path
       id="rect1"
       style="fill:#9ab7ef;fill-opacity:1;stroke:none;stroke-width:0.237216"
       d="M 0 0 L 0 100.0001 L 100.0001 100.0001 L 100.0001 0 L 0 0 z M 100.0001 100.0001 L 100.0001 200.0002 L 200.0002 200.0002 L 200.0002 100.0001 L 100.0001 100.0001 z M 200.0002 100.0001 L 299.99978 100.0001 L 299.99978 0 L 200.0002 0 L 200.0002 100.0001 z M 299.99978 100.0001 L 299.99978 200.0002 L 399.99987 200.0002 L 399.99987 100.0001 L 299.99978 100.0001 z M 399.99987 100.0001 L 499.99997 100.0001 L 499.99997 0 L 399.99987 0 L 399.99987 100.0001 z M 499.99997 100.0001 L 499.99997 200.0002 L 600.00007 200.0002 L 600.00007 100.0001 L 499.99997 100.0001 z M 600.00007 100.0001 L 700.00017 100.0001 L 700.00017 0 L 600.00007 0 L 600.00007 100.0001 z M 700.00017 100.0001 L 700.00017 200.0002 L 799.99975 200.0002 L 799.99975 100.0001 L 700.00017 100.0001 z M 700.00017 200.0002 L 600.00007 200.0002 L 600.00007 299.99978 L 700.00017 299.99978 L 700.00017 200.0002 z M 700.00017 299.99978 L 700.00017 399.99987 L 799.99975 399.99987 L 799.99975 299.99978 L 700.00017 299.99978 z M 700.00017 399.99987 L 600.00007 399.99987 L 600.00007 499.99997 L 700.00017 499.99997 L 700.00017 399.99987 z M 700.00017 499.99997 L 700.00017 600.00007 L 799.99975 600.00007 L 799.99975 499.99997 L 700.00017 499.99997 z M 700.00017 600.00007 L 600.00007 600.00007 L 600.00007 700.00017 L 700.00017 700.00017 L 700.00017 600.00007 z M 700.00017 700.00017 L 700.00017 799.99975 L 799.99975 799.99975 L 799.99975 700.00017 L 700.00017 700.00017 z M 600.00007 700.00017 L 499.99997 700.00017 L 499.99997 799.99975 L 600.00007 799.99975 L 600.00007 700.00017 z M 499.99997 700.00017 L 499.99997 600.00007 L 399.99987 600.00007 L 399.99987 700.00017 L 499.99997 700.00017 z M 399.99987 700.00017 L 299.99978 700.00017 L 299.99978 799.99975 L 399.99987 799.99975 L 399.99987 700.00017 z M 299.99978 700.00017 L 299.99978 600.00007 L 200.0002 600.00007 L 200.0002 700.00017 L 299.99978 700.00017 z M 200.0002 700.00017 L 100.0001 700.00017 L 100.0001 799.99975 L 200.0002 799.99975 L 200.0002 700.00017 z M 100.0001 700.00017 L 100.0001 600.00007 L 0 600.00007 L 0 700.00017 L 100.0001 700.00017 z M 100.0001 600.00007 L 200.0002 600.00007 L 200.0002 499.99997 L 100.0001 499.99997 L 100.0001 600.00007 z M 100.0001 499.99997 L 100.0001 399.99987 L 0 399.99987 L 0 499.99997 L 100.0001 499.99997 z M 100.0001 399.99987 L 200.0002 399.99987 L 200.0002 299.99978 L 100.0001 299.99978 L 100.0001 399.99987 z M 100.0001 299.99978 L 100.0001 200.0002 L 0 200.0002 L 0 299.99978 L 100.0001 299.99978 z M 200.0002 299.99978 L 299.99978 299.99978 L 299.99978 200.0002 L 200.0002 200.0002 L 200.0002 299.99978 z M 299.99978 299.99978 L 299.99978 399.99987 L 399.99987 399.99987 L 399.99987 299.99978 L 299.99978 299.99978 z M 399.99987 299.99978 L 499.99997 299.99978 L 499.99997 200.0002 L 399.99987 200.0002 L 399.99987 299.99978 z M 499.99997 299.99978 L 499.99997 399.99987 L 600.00007 399.99987 L 600.00007 299.99978 L 499.99997 299.99978 z M 499.99997 399.99987 L 399.99987 399.99987 L 399.99987 499.99997 L 499.99997 499.99997 L 499.99997 399.99987 z M 499.99997 499.99997 L 499.99997 600.00007 L 600.00007 600.00007 L 600.00007 499.99997 L 499.99997 499.99997 z M 399.99987 499.99997 L 299.99978 499.99997 L 299.99978 600.00007 L 399.99987 600.00007 L 399.99987 499.99997 z M 299.99978 499.99997 L 299.99978 399.99987 L 200.0002 399.99987 L 200.0002 499.99997 L 299.99978 499.99997 z "
       inkscape:label="White" />
    <path
       id="rect2"
       style="fill:#864070;fill-opacity:1;stroke:none;stroke-width:0.237216"
       d="M 699.9999 0 L 699.9999 100.0001 L 599.9998 100.0001 L 599.9998 0 L 699.9999 0 z M 599.9998 100.0001 L 599.9998 200.0002 L 500.00022 200.0002 L 500.00022 100.0001 L 599.9998 100.0001 z M 500.00022 100.0001 L 400.00013 100.0001 L 400.00013 0 L 500.00022 0 L 500.00022 100.0001 z M 400.00013 100.0001 L 400.00013 200.0002 L 300.00003 200.0002 L 300.00003 100.0001 L 400.00013 100.0001 z M 300.00003 100.0001 L 199.99993 100.0001 L 199.99993 0 L 300.00003 0 L 300.00003 100.0001 z M 199.99993 100.0001 L 199.99993 200.0002 L 99.999833 200.0002 L 99.999833 100.0001 L 199.99993 100.0001 z M 99.999833 100.0001 L 0.00025227865 100.0001 L 0.00025227865 0 L 99.999833 0 L 99.999833 100.0001 z M 99.999833 200.0002 L 99.999833 299.99978 L 0.00025227865 299.99978 L 0.00025227865 200.0002 L 99.999833 200.0002 z M 99.999833 299.99978 L 199.99993 299.99978 L 199.99993 399.99987 L 99.999833 399.99987 L 99.999833 299.99978 z M 99.999833 399.99987 L 99.999833 499.99997 L 0.00025227865 499.99997 L 0.00025227865 399.99987 L 99.999833 399.99987 z M 99.999833 499.99997 L 199.99993 499.99997 L 199.99993 600.00007 L 99.999833 600.00007 L 99.999833 499.99997 z M 99.999833 600.00007 L 99.999833 700.00017 L 0.00025227865 700.00017 L 0.00025227865 600.00007 L 99.999833 600.00007 z M 99.999833 700.00017 L 199.99993 700.00017 L 199.99993 799.99975 L 99.999833 799.99975 L 99.999833 700.00017 z M 199.99993 700.00017 L 199.99993 600.00007 L 300.00003 600.00007 L 300.00003 700.00017 L 199.99993 700.00017 z M 300.00003 700.00017 L 400.00013 700.00017 L 400.00013 799.99975 L 300.00003 799.99975 L 300.00003 700.00017 z M 400.00013 700.00017 L 400.00013 600.00007 L 500.00022 600.00007 L 500.00022 700.00017 L 400.00013 700.00017 z M 500.00022 700.00017 L 599.9998 700.00017 L 599.9998 799.99975 L 500.00022 799.99975 L 500.00022 700.00017 z M 599.9998 700.00017 L 599.9998 600.00007 L 699.9999 600.00007 L 699.9999 700.00017 L 599.9998 700.00017 z M 699.9999 700.00017 L 800 700.00017 L 800 799.99975 L 699.9999 799.99975 L 699.9999 700.00017 z M 699.9999 600.00007 L 699.9999 499.99997 L 800 499.99997 L 800 600.00007 L 699.9999 600.00007 z M 699.9999 499.99997 L 599.9998 499.99997 L 599.9998 399.99987 L 699.9999 399.99987 L 699.9999 499.99997 z M 699.9999 399.99987 L 699.9999 299.99978 L 800 299.99978 L 800 399.99987 L 699.9999 399.99987 z M 699.9999 299.99978 L 599.9998 299.99978 L 599.9998 200.0002 L 699.9999 200.0002 L 699.9999 299.99978 z M 699.9999 200.0002 L 699.9999 100.0001 L 800 100.0001 L 800 200.0002 L 699.9999 200.0002 z M 599.9998 299.99978 L 599.9998 399.99987 L 500.00022 399.99987 L 500.00022 299.99978 L 599.9998 299.99978 z M 500.00022 299.99978 L 400.00013 299.99978 L 400.00013 200.0002 L 500.00022 200.0002 L 500.00022 299.99978 z M 400.00013 299.99978 L 400.00013 399.99987 L 300.00003 399.99987 L 300.00003 299.99978 L 400.00013 299.99978 z M 300.00003 299.99978 L 199.99993 299.99978 L 199.99993 200.0002 L 300.00003 200.0002 L 300.00003 299.99978 z M 300.00003 399.99987 L 300.00003 499.99997 L 199.99993 499.99997 L 199.99993 399.99987 L 300.00003 399.99987 z M 300.00003 499.99997 L 400.00013 499.99997 L 400.00013 600.00007 L 300.00003 600.00007 L 300.00003 499.99997 z M 400.00013 499.99997 L 400.00013 399.99987 L 500.00022 399.99987 L 500.00022 499.99997 L 400.00013 499.99997 z M 500.00022 499.99997 L 599.9998 499.99997 L 599.9998 600.00007 L 500.00022 600.00007 L 500.00022 499.99997 z "
       transform="matrix(-1,0,0,1,799.99999,0)"
       inkscape:label="Black" />
  </g>
</svg>
